<svg width="72" height="72" viewBox="0 0 72 72" fill="none" xmlns="http://www.w3.org/2000/svg">
<rect width="72" height="72" rx="36" fill="#D9D9D9"/>
<path d="M31.5735 16.7552C31.7056 16.7539 31.8376 16.7526 31.9737 16.7512C32.3992 16.7479 32.8246 16.7462 33.2502 16.7452C33.3952 16.7449 33.5403 16.7445 33.6898 16.7441C35.8039 16.7436 37.8367 16.8271 39.9144 17.2522C40.2524 17.321 40.5907 17.3808 40.9308 17.438C46.9351 18.5011 52.7641 21.5517 57.1124 25.7968C57.2877 25.9593 57.2877 25.9593 57.4666 26.1251C60.2926 28.8046 62.5922 33.0146 62.7707 36.9578C62.7761 37.0502 62.7814 37.1426 62.787 37.2378C62.8541 39.4254 62.0916 41.513 60.6151 43.1435C60.5134 43.2573 60.4116 43.3712 60.3068 43.4886C58.8491 45.0316 57.1604 46.0106 55.2127 46.8288C55.1213 46.8677 55.03 46.9067 54.9358 46.9468C54.6875 47.0431 54.6875 47.0431 54.3123 47.1256C53.7874 47.4536 53.6893 48.0488 53.5003 48.6147C52.8495 50.4304 52.0911 52.0529 50.7806 53.4977C50.6865 53.6026 50.5923 53.7074 50.4954 53.8155C49.3307 55.0463 47.9871 55.9537 46.2685 56.0899C44.7853 56.129 43.8839 55.797 42.7563 54.8088C41.7259 53.6484 41.5328 52.7508 41.6196 51.2117C41.7915 50.0771 42.7291 49.1741 43.612 48.5076C43.7103 48.4237 43.8086 48.3398 43.9099 48.2533C43.9099 48.1202 43.9099 47.9871 43.9099 47.8499C43.4408 48.0326 42.9847 48.2332 42.529 48.4466C41.1894 49.0568 39.835 49.5041 38.3537 49.5087C38.2504 49.5096 38.147 49.5105 38.0405 49.5115C37.8225 49.5128 37.6044 49.5135 37.3863 49.5134C37.0614 49.514 36.7367 49.5189 36.4119 49.524C34.8957 49.535 33.5166 49.3187 32.0545 48.9257C31.9304 48.8933 31.8063 48.8609 31.6784 48.8275C31.3991 48.75 31.125 48.6653 30.8505 48.5727C30.7529 48.5398 30.6554 48.5069 30.5549 48.4731C27.284 47.3128 23.9382 45.0061 22.22 41.9332C22.22 41.8445 22.22 41.7557 22.22 41.6643C21.9709 41.6666 21.9709 41.6666 21.7169 41.669C18.42 41.6917 15.3958 41.3547 12.9254 38.9837C12.7436 38.8033 12.5644 38.6202 12.3854 38.437C12.2927 38.3456 12.1999 38.2543 12.1044 38.1602C10.4812 36.4587 10.0035 34.0878 10.0499 31.8127C10.2174 28.4846 12.1623 25.5664 14.4062 23.2418C14.4847 23.155 14.5632 23.0681 14.6441 22.9787C18.6497 18.6674 25.8876 16.802 31.5735 16.7552Z" fill="#011830"/>
<path d="M54.9544 26.6744C55.0569 26.7708 55.1593 26.8671 55.2648 26.9664C55.3978 27.0901 55.3978 27.0901 55.5335 27.2162C57.4272 29.0474 58.8514 31.3296 59.6637 33.8477C59.7159 34.0023 59.7682 34.1569 59.822 34.3162C60.3879 36.1758 60.5289 38.2666 59.6637 40.0543C58.5773 42.1144 56.8272 43.4514 54.7316 44.3719C54.5996 44.3719 54.4677 44.3719 54.3317 44.3719C54.3455 44.2457 54.3455 44.2457 54.3597 44.117C54.8078 39.6667 54.4104 35.5979 51.6079 31.9645C48.6837 28.455 44.4336 26.555 39.9352 26.1569C39.1446 26.1163 38.3534 26.1179 37.5619 26.1217C37.2031 26.1231 36.8444 26.1217 36.4856 26.12C35.1657 26.1188 33.9046 26.1822 32.6037 26.4267C32.4478 26.4552 32.4478 26.4552 32.2888 26.4842C29.3972 27.051 26.5457 28.1902 24.3391 30.2047C24.2369 30.2956 24.1346 30.3866 24.0293 30.4803C22.7215 31.7142 21.3731 33.7384 21.2559 35.6071C21.2558 35.703 21.2556 35.799 21.2555 35.8979C21.2552 36.0051 21.255 36.1123 21.2547 36.2227C21.2553 36.335 21.2559 36.4473 21.2565 36.5631C21.2568 36.6776 21.257 36.7921 21.2573 36.91C21.2627 37.6962 21.3054 38.4646 21.4065 39.2447C18.8948 39.3364 16.5646 38.807 14.6332 37.1196C13.1663 35.709 12.6118 34.0567 12.5587 32.0346C12.5449 29.1264 14.1967 26.4762 16.1245 24.4365C19.546 21.113 24.0401 19.6643 28.6047 18.8708C28.706 18.8527 28.8073 18.8346 28.9117 18.8159C38.0609 17.2553 48.1543 20.3758 54.9544 26.6744Z" fill="#00D497"/>
<path d="M49.2372 32.7292C51.3498 34.7351 52.5393 37.6002 52.6877 40.5034C52.8068 44.5815 52.8068 44.5815 52.0036 45.8533C51.7483 45.9742 51.7483 45.9742 51.4338 46.0504C51.3166 46.0803 51.1994 46.1103 51.0787 46.1412C50.9518 46.1717 50.8249 46.2022 50.6942 46.2337C50.4259 46.3031 50.1578 46.3732 49.8899 46.4439C49.7529 46.48 49.616 46.516 49.475 46.5532C47.6312 47.0585 45.8604 47.7422 44.1304 48.5581C44.0183 48.2639 44.0183 48.2639 43.9969 47.8819C44.2336 47.6103 44.448 47.4055 44.7225 47.1804C44.8724 47.0484 45.0216 46.9158 45.1703 46.7826C45.2438 46.7168 45.3173 46.6511 45.3931 46.5833C47.0783 45.0306 48.0854 42.5493 48.1936 40.2707C48.2253 38.8722 47.9212 37.7302 47.0495 36.6147C46.0955 35.6082 44.8973 35.0303 43.5966 34.6284C43.464 34.5801 43.3313 34.5318 43.1947 34.4821C38.9254 33.2702 34.1532 35.3977 30.3856 37.198C30.1928 37.2891 29.9999 37.3802 29.807 37.4711C28.9016 37.8969 28.9016 37.8969 28.0013 38.3338C26.6414 38.9929 25.2244 39.4265 23.7134 39.497C23.218 37.6143 23.3878 35.9129 24.3389 34.1973C26.3811 31.0155 29.8401 29.705 33.3375 28.8817C38.8535 27.7131 44.9759 29.0052 49.2372 32.7292Z" fill="#00D498"/>
<path d="M44.8892 37.3016C45.5749 37.9016 45.938 38.5483 46.0442 39.4719C46.0982 41.7746 45.3014 43.4762 43.79 45.1625C41.5677 47.3675 38.9705 47.7496 36.021 47.7193C31.9023 47.62 27.9824 45.7764 25.1037 42.7761C24.2793 41.7935 24.2793 41.7935 24.2793 41.3724C24.3715 41.348 24.4638 41.3235 24.5588 41.2983C26.976 40.6442 29.1391 39.7587 31.389 38.643C35.4881 36.6415 40.6594 34.594 44.8892 37.3016Z" fill="#00D497"/>
<path d="M51.07 47.7209C50.3557 49.9661 48.9571 52.1294 46.7812 53.2789C46.1512 53.5555 45.7378 53.6445 45.0506 53.5374C44.5101 53.3068 44.0992 53.0238 43.7129 52.5922C43.4622 51.9412 43.4747 51.4355 43.7631 50.815C45.2283 49.2306 48.8451 47.7209 51.07 47.7209Z" fill="#F8F9FA"/>
</svg>
