<svg width="369" height="318" viewBox="0 0 369 318" fill="none" xmlns="http://www.w3.org/2000/svg">
<rect x="-0.000167026" y="226.705" width="368.289" height="15.0275" rx="7.51373" fill="#9C9393"/>
<rect x="-8.35061e-05" y="-5.1558e-06" width="368.289" height="15.0275" rx="7.51373" fill="#979797"/>
<path d="M-0.000167026 83.0819C-0.000167026 78.9322 3.36385 75.5682 7.51357 75.5682H360.776C364.925 75.5682 368.289 78.9322 368.289 83.0819V83.0819C368.289 87.2316 364.925 90.5957 360.776 90.5957H7.51357C3.36385 90.5957 -0.000167026 87.2316 -0.000167026 83.0819V83.0819Z" fill="#9F9595"/>
<path d="M-0.000167026 158.65C-0.000167026 154.5 3.36385 151.136 7.51357 151.136H358.758C362.907 151.136 366.271 154.5 366.271 158.65V158.65C366.271 162.8 362.907 166.164 358.758 166.164H7.51357C3.36385 166.164 -0.000167026 162.8 -0.000167026 158.65V158.65Z" fill="#B4AAAA"/>
<rect x="2.01786" y="302.273" width="366.271" height="15.0275" rx="7.51373" fill="#A79F9F"/>
</svg>
