<svg width="70" height="78" viewBox="0 0 70 78" fill="none" xmlns="http://www.w3.org/2000/svg">
<path d="M11.4651 1.62653C12.3171 0.951659 13.6503 0.307492 14.3518 1.13824C20.8477 8.83484 27.3442 16.5315 33.8401 24.2281C34.1498 24.595 34.4694 24.9837 34.5657 25.4547C34.7634 26.4231 33.9582 27.299 33.1428 27.8541C32.3277 28.409 31.3728 28.9094 30.9993 29.8238C30.6258 30.7386 31.4401 32.0873 32.3518 31.7125C37.0195 28.3487 41.8986 24.8934 47.5588 23.8951C48.6298 23.7062 49.7941 23.623 50.7473 24.148C52.8684 25.3166 52.5701 28.4507 51.7639 30.7398C50.2928 34.9164 48.1122 38.8405 45.344 42.2916C44.7927 42.9789 44.1797 43.805 44.4124 44.6558C44.7415 45.8586 46.4065 46.0064 47.5979 45.65C48.7893 45.2934 50.0953 44.6925 51.2043 45.2564C51.6947 45.5058 52.0527 45.9504 52.3958 46.3814C58.1938 53.6651 63.9923 60.9483 69.7903 68.232C65.7844 71.3924 61.7071 74.4621 57.5618 77.4361C57.1524 77.7298 56.6952 78.0362 56.1936 77.9947C55.5995 77.9454 55.1647 77.4318 54.8 76.9586C49.2395 69.7415 43.679 62.5242 38.1184 55.3072C37.4071 54.384 38.0766 53.0041 38.9924 52.2847C39.9084 51.5655 41.0721 51.1327 41.7786 50.2056C42.485 49.2785 42.2977 47.5498 41.1477 47.3746C40.4937 47.2749 39.8927 47.7314 39.4202 48.1959C38.1005 49.493 37.0084 51.1174 35.3323 51.897C32.8982 53.0291 29.6439 51.7372 28.6409 49.2408C28.3733 48.576 27.2449 48.8847 27.0305 49.5689C26.8163 50.2531 27.1621 50.9715 27.4553 51.6255C30.434 58.2708 28.0627 66.8839 22.1067 71.0533C20.5885 70.1218 19.9764 68.065 18.3733 67.2896C17.6343 66.9322 16.7861 66.9029 15.9661 66.8804C13.5286 66.8136 11.091 66.7471 8.65356 66.6802C7.7641 66.6558 6.69379 66.7288 6.26196 67.5093C5.32075 69.2104 2.80356 69.8883 1.27954 68.6851C-0.24415 67.4819 0.0164414 64.6066 1.82153 63.8961C2.24778 63.7283 2.73238 63.6685 3.08423 63.3746C3.39988 63.1108 3.55212 62.7037 3.69165 62.316C4.63739 59.6881 5.58283 57.0601 6.52856 54.4322C6.70679 53.937 6.88787 53.4273 6.87524 52.9009C6.84942 51.8284 6.04159 50.9466 5.21313 50.2681C4.38464 49.5896 3.44998 48.9598 2.98267 47.9947C2.51538 47.0296 2.78979 45.6014 3.81372 45.2916C9.18522 43.6664 15.2239 42.6346 20.2249 45.1861C21.0806 45.6227 21.9341 46.1707 22.8938 46.1978C23.8537 46.2248 24.9155 45.4371 24.7405 44.4898C24.4942 43.1571 22.1613 42.5951 22.5764 41.3052C22.666 41.0272 22.88 40.8105 23.0872 40.605C25.2086 38.5017 27.33 36.3979 29.4514 34.2945C29.6713 33.1012 27.9426 32.4491 26.8284 32.9214C25.7141 33.3941 24.9114 34.4352 23.7922 34.8961C21.5294 35.8277 19.1062 34.1041 17.3147 32.4332C10.9024 26.4522 5.2156 19.689 0.419189 12.3404C0.19908 12.0032 -0.0277535 11.6321 0.0012207 11.23C0.0386129 10.7139 0.477217 10.3321 0.88208 10.0113C4.40962 7.21662 7.93755 4.4212 11.4651 1.62653ZM13.9602 60.1041C13.7374 60.0165 13.4873 60.0947 13.2629 60.1783C10.851 61.0772 8.68659 62.6359 7.06763 64.6422C7.43606 64.846 7.87935 64.8437 8.30005 64.8355C11.1621 64.7798 14.0249 64.7242 16.887 64.6685C17.201 64.6623 17.6355 64.5091 17.5549 64.2047C16.483 62.9444 15.4101 61.6846 14.3381 60.4244C14.2299 60.2972 14.1154 60.1651 13.9602 60.1041ZM9.2229 54.2632C8.7355 54.1126 8.35931 54.6914 8.17505 55.1685C7.20654 57.6763 6.23828 60.1842 5.26978 62.692C5.23753 62.7755 5.20477 62.8622 5.2063 62.9517C5.21078 63.2073 5.50267 63.3784 5.7561 63.3521C6.00941 63.3257 6.22601 63.164 6.42798 63.0084C8.22391 61.624 10.0197 60.2394 11.8157 58.855C12.0963 58.6387 12.4042 58.3702 12.4026 58.0152C12.4013 57.7382 12.2083 57.5041 12.0256 57.2964C11.2364 56.3993 10.4467 55.5022 9.65747 54.605C9.53404 54.4647 9.40113 54.3184 9.2229 54.2632Z" fill="white"/>
</svg>
