<svg width="19" height="19" viewBox="0 0 19 19" fill="none" xmlns="http://www.w3.org/2000/svg">
<path d="M1.74059 14.0976C1.78119 14.0975 1.78119 14.0975 1.82261 14.0975C1.91349 14.0973 2.00437 14.0974 2.09526 14.0975C2.161 14.0974 2.22675 14.0974 2.29249 14.0973C2.47331 14.0971 2.65412 14.0971 2.83494 14.0972C3.02989 14.0972 3.22484 14.097 3.41979 14.0969C3.80178 14.0967 4.18378 14.0966 4.56577 14.0966C4.87623 14.0966 5.18668 14.0965 5.49713 14.0964C5.58649 14.0964 5.67585 14.0964 5.7652 14.0963C5.78742 14.0963 5.80963 14.0963 5.83252 14.0963C6.4574 14.0962 7.08227 14.0961 7.70714 14.0961C7.7307 14.0961 7.75426 14.0961 7.77854 14.0961C7.89795 14.0961 8.01736 14.0961 8.13677 14.0961C8.17234 14.0961 8.17234 14.0961 8.20863 14.0961C8.25659 14.0961 8.30455 14.0961 8.3525 14.0961C9.09868 14.0961 9.84485 14.0959 10.591 14.0955C11.4293 14.0951 12.2676 14.0949 13.1059 14.0949C13.1953 14.0949 13.2847 14.0949 13.3741 14.0949C13.4071 14.0949 13.4071 14.0949 13.4408 14.0949C13.7731 14.0949 14.1053 14.0948 14.4376 14.0945C14.8154 14.0943 15.1933 14.0942 15.5712 14.0944C15.7641 14.0945 15.9569 14.0945 16.1497 14.0943C16.3263 14.0941 16.5028 14.0941 16.6793 14.0943C16.7432 14.0944 16.807 14.0943 16.8709 14.0942C16.9578 14.094 17.0446 14.0941 17.1314 14.0944C17.1562 14.0942 17.1809 14.0941 17.2064 14.094C17.6008 14.0961 17.9327 14.1943 18.2211 14.417C18.5268 14.6804 18.6178 14.9633 18.6174 15.3167C18.6177 15.3606 18.6177 15.3606 18.6181 15.4055C18.6187 15.502 18.6188 15.5986 18.6189 15.6951C18.6191 15.7626 18.6193 15.83 18.6196 15.8974C18.62 16.0387 18.6201 16.18 18.6201 16.3213C18.62 16.5017 18.621 16.6822 18.6221 16.8626C18.6228 17.0019 18.623 17.1412 18.6229 17.2805C18.623 17.347 18.6233 17.4134 18.6238 17.4799C18.6245 17.5733 18.6243 17.6666 18.6239 17.7599C18.6242 17.787 18.6246 17.8141 18.625 17.842C18.6215 18.1721 18.4829 18.4521 18.2107 18.6957C17.908 18.9099 17.5428 18.9973 17.1492 18.9964C17.1223 18.9965 17.0954 18.9965 17.0677 18.9966C16.9772 18.9967 16.8867 18.9966 16.7962 18.9966C16.7308 18.9966 16.6654 18.9967 16.6 18.9968C16.42 18.9969 16.24 18.9969 16.06 18.9969C15.866 18.9969 15.6719 18.997 15.4779 18.9972C15.0976 18.9974 14.7174 18.9975 14.3371 18.9975C14.028 18.9975 13.7189 18.9975 13.4098 18.9976C13.3208 18.9976 13.2319 18.9977 13.1429 18.9977C13.1098 18.9977 13.1098 18.9977 13.0759 18.9977C12.4537 18.9979 11.8316 18.998 11.2094 18.998C11.1742 18.998 11.1742 18.998 11.1383 18.998C11.0194 18.998 10.9005 18.998 10.7816 18.998C10.7579 18.998 10.7343 18.998 10.71 18.998C10.6622 18.998 10.6145 18.998 10.5667 18.998C9.82388 18.9979 9.08104 18.9981 8.3382 18.9985C7.50364 18.9989 6.66909 18.9992 5.83453 18.9991C5.74551 18.9991 5.65649 18.9991 5.56747 18.9991C5.54555 18.9991 5.52363 18.9991 5.50104 18.9991C5.17033 18.9991 4.83961 18.9993 4.50889 18.9995C4.13262 18.9997 3.75635 18.9998 3.38008 18.9996C3.18811 18.9995 2.99614 18.9995 2.80417 18.9998C2.62835 19 2.45253 18.9999 2.27671 18.9997C2.21318 18.9997 2.14966 18.9997 2.08613 18.9999C1.57442 19.001 1.12414 18.9961 0.713079 18.7125C0.689193 18.6891 0.665307 18.6657 0.640698 18.6416C0.624489 18.6261 0.608281 18.6106 0.591582 18.5946C0.359709 18.3607 0.289882 18.1335 0.292686 17.8364C0.292454 17.8057 0.292222 17.7751 0.291983 17.7435C0.291404 17.6428 0.291785 17.5422 0.292234 17.4415C0.292144 17.3711 0.292016 17.3007 0.29185 17.2303C0.29161 17.0831 0.291924 16.9358 0.292557 16.7885C0.293277 16.6189 0.293044 16.4494 0.292315 16.2798C0.291639 16.1159 0.291714 15.9519 0.292101 15.7879C0.292189 15.7185 0.292082 15.6491 0.291773 15.5797C0.291434 15.4825 0.291952 15.3854 0.292686 15.2882C0.292418 15.2598 0.29215 15.2315 0.291874 15.2023C0.29658 14.8637 0.44645 14.6218 0.727426 14.3791C1.01322 14.1591 1.35924 14.0968 1.74059 14.0976Z" fill="#0FD08C"/>
<path d="M1.83138 15.3714C6.85423 15.3714 11.8771 15.3714 17.0521 15.3714C17.0521 16.1384 17.0521 16.9054 17.0521 17.6957C12.0293 17.6957 7.00643 17.6957 1.83138 17.6957C1.83138 16.9287 1.83138 16.1616 1.83138 15.3714Z" fill="#FEFEFE"/>
<path d="M9.8728 0.776907C9.95915 0.830543 10.0339 0.891019 10.1095 0.954456C10.1419 0.980847 10.1419 0.980847 10.175 1.00777C10.2457 1.06549 10.3158 1.12368 10.3859 1.18189C10.4354 1.22245 10.4848 1.26298 10.5343 1.30348C10.6642 1.40991 10.7935 1.51675 10.9228 1.62367C11.028 1.71056 11.1335 1.79714 11.2391 1.88371C11.3657 1.9875 11.4921 2.09143 11.6185 2.1954C11.6423 2.21501 11.6662 2.23462 11.6907 2.25482C11.7588 2.31087 11.8268 2.36702 11.8947 2.4232C11.9145 2.43944 11.9342 2.45567 11.9545 2.4724C12.0531 2.5541 12.1479 2.63733 12.2398 2.72406C12.3431 2.82152 12.4515 2.91296 12.5644 3.00298C12.6049 3.03551 12.6454 3.06804 12.6859 3.10057C12.7069 3.11744 12.728 3.13431 12.7497 3.1517C12.8626 3.24224 12.975 3.33322 13.0874 3.42412C13.2299 3.53921 13.3726 3.65419 13.5157 3.76874C13.6321 3.86186 13.7479 3.95538 13.8634 4.04917C13.9073 4.08465 13.9514 4.11998 13.9956 4.15516C14.0576 4.20442 14.1188 4.25418 14.18 4.30407C14.1981 4.31827 14.2163 4.33247 14.235 4.3471C14.397 4.48119 14.4578 4.63071 14.4866 4.81574C14.4528 5.04037 14.3563 5.19161 14.1412 5.33431C13.9551 5.43885 13.7579 5.47261 13.5334 5.44179C13.215 5.36517 12.9887 5.16767 12.7611 4.98002C12.7336 4.95759 12.7061 4.93516 12.6778 4.91205C12.5878 4.83848 12.498 4.76472 12.4082 4.69095C12.3456 4.63966 12.2829 4.58839 12.2202 4.53713C12.0725 4.41635 11.925 4.29543 11.7776 4.17447C11.6096 4.03664 11.4414 3.89897 11.2732 3.76131C10.9275 3.47839 10.5821 3.19528 10.2368 2.91203C10.2367 2.93977 10.2367 2.93977 10.2367 2.96807C10.2355 4.06425 10.2337 5.16042 10.2309 6.2566C10.2306 6.38823 10.2302 6.51986 10.2299 6.65149C10.2298 6.69079 10.2298 6.69079 10.2297 6.7309C10.2287 7.15516 10.2281 7.57942 10.2277 8.00369C10.2273 8.43905 10.2264 8.87441 10.225 9.30977C10.2242 9.57839 10.2238 9.84701 10.2238 10.1156C10.2238 10.2999 10.2233 10.4841 10.2225 10.6683C10.222 10.7746 10.2217 10.8808 10.222 10.9871C10.2223 11.0845 10.222 11.1819 10.2211 11.2793C10.2209 11.331 10.2212 11.3827 10.2216 11.4345C10.219 11.6541 10.1818 11.8296 10.0075 12.0022C9.79023 12.148 9.61975 12.1959 9.33718 12.1906C9.10413 12.1697 8.94023 12.0882 8.79045 11.9437C8.63914 11.7354 8.6342 11.5474 8.63533 11.3103C8.63515 11.274 8.63493 11.2377 8.63467 11.2014C8.63407 11.102 8.63409 11.0027 8.63421 10.9033C8.63423 10.796 8.63368 10.6887 8.6332 10.5814C8.63244 10.3957 8.63205 10.2099 8.6319 10.0242C8.63169 9.7556 8.63093 9.48703 8.63004 9.21846C8.62861 8.78269 8.62762 8.34693 8.6269 7.91116C8.62621 7.48791 8.6253 7.06467 8.62412 6.64142C8.62405 6.61532 8.62398 6.58922 8.6239 6.56233C8.62354 6.4314 8.62316 6.30046 8.62279 6.16952C8.61971 5.08369 8.61734 3.99786 8.61544 2.91203C8.6005 2.92433 8.58557 2.93662 8.57019 2.94929C8.20626 3.24894 7.84196 3.54829 7.47726 3.8473C7.30089 3.99191 7.12466 4.13662 6.94871 4.28157C6.7953 4.40796 6.64166 4.53415 6.48773 4.66012C6.40629 4.72678 6.32497 4.79354 6.24392 4.86052C6.15329 4.93543 6.06214 5.0099 5.97094 5.08434C5.94435 5.10645 5.91777 5.12855 5.89038 5.15132C5.68576 5.31725 5.48239 5.4384 5.18612 5.45509C4.95523 5.4476 4.7616 5.3844 4.59414 5.25471C4.42152 5.09346 4.3631 4.93459 4.3801 4.72283C4.40787 4.64001 4.44195 4.55981 4.47937 4.47959C4.5012 4.47959 4.52304 4.47959 4.54554 4.47959C4.55454 4.46345 4.56354 4.44731 4.57281 4.43068C4.61095 4.37265 4.64793 4.33529 4.70479 4.28914C4.73324 4.26585 4.73324 4.26585 4.76227 4.24209C4.79339 4.21702 4.79339 4.21702 4.82514 4.19145C4.84705 4.1736 4.86895 4.15574 4.89152 4.13734C4.96402 4.0783 5.03675 4.01945 5.10947 3.96059C5.16003 3.91946 5.21056 3.87833 5.26109 3.83718C5.39429 3.72873 5.52768 3.62044 5.66113 3.51219C5.87416 3.33935 6.08697 3.16633 6.29967 2.99321C6.37377 2.93297 6.44797 2.87282 6.52219 2.81268C6.56813 2.77534 6.61407 2.73799 6.66 2.70065C6.68042 2.68416 6.70083 2.66766 6.72186 2.65067C6.84504 2.55032 6.96149 2.44655 7.07495 2.33881C7.14404 2.27389 7.21414 2.21334 7.29189 2.15528C7.31373 2.15528 7.33557 2.15528 7.35807 2.15528C7.36656 2.13922 7.37505 2.12316 7.38379 2.10661C7.42812 2.04148 7.47181 2.00802 7.54213 1.96102C7.73868 1.82491 7.92026 1.67831 8.08835 1.51877C8.23404 1.3821 8.38725 1.25169 8.54282 1.12257C8.5761 1.0948 8.60917 1.06687 8.64202 1.03877C9.00655 0.727257 9.36903 0.549325 9.8728 0.776907Z" fill="#0FD08C"/>
<path d="M5.93562 3.29045C5.93562 3.37153 5.93562 3.37153 5.88685 3.42075C5.86403 3.43905 5.8412 3.45735 5.81769 3.4762C5.79196 3.49704 5.76623 3.51787 5.73972 3.53934C5.7116 3.56172 5.68347 3.58411 5.6545 3.60717C5.62593 3.63026 5.59737 3.65334 5.56794 3.67713C5.47634 3.75113 5.38443 3.82486 5.29246 3.89855C5.20064 3.97226 5.10889 4.04603 5.01734 4.11997C4.96028 4.16604 4.90306 4.21197 4.84567 4.25776C4.81983 4.2786 4.794 4.29943 4.76738 4.3209C4.74453 4.3392 4.72168 4.3575 4.69814 4.37635C4.63788 4.42591 4.63788 4.42591 4.61208 4.50666C4.57899 4.53368 4.5459 4.56071 4.51281 4.58774C4.47964 4.66903 4.46969 4.73742 4.46111 4.82253C4.45695 4.86282 4.45695 4.86282 4.45271 4.90393C4.4507 4.92445 4.4487 4.94497 4.44663 4.96611C4.38046 4.91206 4.38046 4.91206 4.37012 4.82929C4.38239 4.70302 4.42483 4.59732 4.47972 4.47963C4.50156 4.47963 4.5234 4.47963 4.5459 4.47963C4.55416 4.46409 4.56242 4.44855 4.57093 4.43254C4.61799 4.36276 4.67191 4.31616 4.74109 4.26001C4.76758 4.23837 4.79407 4.21674 4.82137 4.19445C4.84998 4.17136 4.87859 4.14827 4.90807 4.12448C4.93735 4.10064 4.96663 4.07679 4.9968 4.05223C5.07447 3.98904 5.15228 3.92597 5.23017 3.86295C5.30969 3.79855 5.38902 3.734 5.46837 3.66946C5.62395 3.54298 5.77971 3.41665 5.93562 3.29045Z" fill="#0CC578"/>
<path d="M9.57504 0.668775C9.58596 0.686613 9.59688 0.704451 9.60813 0.722829C9.58339 0.724467 9.55865 0.726104 9.53316 0.727791C9.50057 0.730056 9.46799 0.73232 9.43441 0.734653C9.40217 0.736848 9.36992 0.739043 9.3367 0.741304C9.22184 0.751099 9.22184 0.751099 9.1118 0.776883C9.10088 0.803639 9.08996 0.830396 9.07871 0.857964C9.05687 0.849045 9.03503 0.840126 9.01253 0.830937C9.02345 0.80418 9.03437 0.777423 9.04562 0.749856C9.23154 0.677921 9.37079 0.659838 9.57504 0.668775Z" fill="#16C780"/>
<path d="M6.29801 2.99302C6.30893 3.01086 6.31985 3.0287 6.3311 3.04708C6.2644 3.16885 6.17124 3.22272 6.0333 3.29032C6.01146 3.2814 5.98962 3.27248 5.96712 3.26329C6.07631 3.1741 6.18551 3.08491 6.29801 2.99302Z" fill="#07C577"/>
<path d="M0.904568 14.2634C0.926407 14.2723 0.948245 14.2812 0.970745 14.2904C0.850634 14.3796 0.730522 14.4688 0.606771 14.5607C0.606771 14.4796 0.606771 14.4796 0.671914 14.4244C0.699553 14.4052 0.727193 14.3861 0.75567 14.3664C0.783309 14.3471 0.810948 14.3277 0.839425 14.3078C0.860922 14.2931 0.88242 14.2785 0.904568 14.2634Z" fill="#0BC67A"/>
<path d="M6.69646 2.66874C6.70738 2.68658 6.7183 2.70442 6.72955 2.7228C6.65304 2.79036 6.65304 2.79036 6.56411 2.85793C6.53135 2.85793 6.49859 2.85793 6.46484 2.85793C6.54128 2.7955 6.61771 2.73307 6.69646 2.66874Z" fill="#06C476"/>
<path d="M8.01868 1.58759C8.04052 1.60542 8.06236 1.62326 8.08486 1.64164C7.98658 1.70853 7.98658 1.70853 7.88633 1.77677C7.86449 1.76785 7.84265 1.75894 7.82015 1.74975C7.88566 1.69623 7.95118 1.64272 8.01868 1.58759Z" fill="#08C577"/>
</svg>
