<svg width="27" height="20" viewBox="0 0 27 20" fill="none" xmlns="http://www.w3.org/2000/svg">
<path d="M10.9924 0.00306668C11.0342 0.00431989 11.076 0.00557309 11.1192 0.00686427C12.3168 0.0799347 13.4639 0.7732 14.2471 1.65155C15.055 2.63114 15.4378 3.87204 15.3293 5.13735C15.2552 5.81586 15.0462 6.42699 14.712 7.01969C14.689 7.06132 14.666 7.10295 14.6423 7.14584C14.4429 7.48248 14.1821 7.75708 13.9089 8.03414C13.8733 8.07125 13.8377 8.10836 13.8011 8.14659C12.943 8.98863 11.7552 9.33199 10.5799 9.34563C10.3325 9.34262 10.0936 9.30672 9.8511 9.25994C9.82223 9.25443 9.79336 9.24892 9.76361 9.24324C8.81914 9.0577 8.03723 8.62334 7.35724 7.94961C7.32869 7.92313 7.30014 7.89664 7.27072 7.86936C6.45003 7.09588 6.05333 5.90989 5.99754 4.80834C5.98953 3.47782 6.48651 2.2863 7.41569 1.33619C8.3821 0.376922 9.65072 -0.0403996 10.9924 0.00306668Z" fill="#292B2E"/>
<path d="M20.285 2.70212C20.3476 2.70191 20.3476 2.70191 20.4115 2.70169C20.5495 2.70129 20.6874 2.70121 20.8254 2.70116C20.9216 2.70102 21.0178 2.70088 21.114 2.70073C21.3157 2.70048 21.5175 2.7004 21.7192 2.70043C21.9769 2.70043 22.2346 2.69986 22.4922 2.69913C22.691 2.69866 22.8898 2.69857 23.0886 2.69859C23.1836 2.69854 23.2785 2.69836 23.3734 2.69803C23.5067 2.69761 23.64 2.69774 23.7733 2.69799C23.812 2.69775 23.8507 2.69752 23.8906 2.69727C24.5513 2.70044 25.1262 2.89352 25.6067 3.36062C25.9319 3.73148 26.1074 4.13134 26.2091 4.61036C26.2233 4.67631 26.2233 4.67631 26.2378 4.7436C26.3883 5.59407 26.4235 6.78962 25.933 7.5416C25.4871 8.14868 24.8149 8.48794 24.0798 8.60765C23.819 8.6387 23.5584 8.63773 23.2961 8.63749C23.1925 8.63745 23.089 8.63801 22.9854 8.63872C22.6914 8.64065 22.3974 8.64171 22.1034 8.64199C21.9225 8.64221 21.7415 8.64324 21.5606 8.64475C21.4924 8.64516 21.4243 8.64527 21.3561 8.64504C20.74 8.64309 20.2301 8.74745 19.6917 9.06708C19.6191 9.10835 19.5465 9.14951 19.4738 9.19058C19.4398 9.20995 19.4058 9.22932 19.3707 9.24928C18.7752 9.58534 18.7752 9.58534 18.4316 9.51354C18.2257 9.41256 18.1222 9.28811 18.0089 9.09085C17.9706 8.97608 17.9611 8.90869 17.9604 8.79071C17.9601 8.75547 17.9598 8.72022 17.9595 8.68392C17.9594 8.64538 17.9593 8.60685 17.9591 8.56715C17.9589 8.52644 17.9586 8.48573 17.9583 8.44379C17.9575 8.30872 17.957 8.17366 17.9566 8.03859C17.9564 7.99235 17.9562 7.9461 17.956 7.89845C17.9552 7.65331 17.9546 7.40816 17.9542 7.16301C17.9537 6.91094 17.9522 6.65888 17.9506 6.40681C17.9494 6.21211 17.9491 6.01741 17.9489 5.82271C17.9487 5.72987 17.9483 5.63704 17.9475 5.54422C17.9406 4.68428 18.0484 3.96375 18.6647 3.31224C19.132 2.88169 19.6626 2.70182 20.285 2.70212Z" fill="#1BCC81"/>
<path d="M12.5457 2.11122C13.2267 2.63024 13.6958 3.37366 13.8146 4.22869C13.9072 5.04145 13.7202 5.84975 13.2326 6.51246C13.2088 6.54641 13.185 6.58035 13.1604 6.61533C12.6972 7.24039 11.9705 7.65868 11.2037 7.78053C10.372 7.87734 9.58209 7.75047 8.87889 7.2733C8.68328 7.1174 8.50425 6.94466 8.3294 6.76608C8.30237 6.73851 8.27535 6.71093 8.2475 6.68253C7.78931 6.17899 7.56931 5.53284 7.52629 4.86398C7.524 4.83145 7.52172 4.79892 7.51936 4.76541C7.49108 3.99025 7.79319 3.19792 8.30034 2.61845C8.36563 2.54904 8.43166 2.48032 8.49848 2.41239C8.52757 2.38275 8.55667 2.3531 8.58665 2.32257C8.99383 1.93506 9.47737 1.69916 10.0202 1.56701C10.0516 1.55895 10.0831 1.55088 10.1156 1.54257C10.9966 1.40704 11.8182 1.60224 12.5457 2.11122Z" fill="#FEFEFE"/>
<path d="M7.24269 11.2404C7.31407 11.2403 7.38546 11.2402 7.45685 11.24C7.64909 11.2396 7.84133 11.2395 8.03357 11.2395C8.15425 11.2395 8.27492 11.2394 8.3956 11.2393C8.81824 11.2389 9.24087 11.2387 9.66351 11.2387C10.0548 11.2388 10.446 11.2383 10.8373 11.2377C11.1754 11.2371 11.5134 11.2369 11.8515 11.2369C12.0525 11.2369 12.2534 11.2368 12.4543 11.2363C13.8905 11.2333 13.8905 11.2333 14.4744 11.2815C14.5289 11.2859 14.5289 11.2859 14.5846 11.2904C14.9511 11.327 15.2971 11.3962 15.5574 11.6693C15.6975 11.8747 15.7145 12.0622 15.6842 12.3033C15.6094 12.5527 15.5111 12.6654 15.3038 12.8105C15.1396 12.8921 15.0256 12.9014 14.8442 12.8818C14.8024 12.8777 14.7607 12.8735 14.7177 12.8691C14.6283 12.8581 14.539 12.8453 14.4501 12.831C14.2834 12.8098 14.1204 12.8043 13.9527 12.8043C13.92 12.8041 13.8874 12.804 13.8537 12.8038C13.745 12.8034 13.6362 12.8032 13.5274 12.803C13.4491 12.8028 13.3709 12.8025 13.2926 12.8022C13.0359 12.8013 12.7793 12.8009 12.5227 12.8004C12.434 12.8003 12.3453 12.8001 12.2566 12.7999C11.8396 12.7991 11.4226 12.7985 11.0056 12.7982C10.526 12.7978 10.0464 12.7966 9.56685 12.7949C9.19508 12.7937 8.82332 12.793 8.45155 12.7929C8.23005 12.7928 8.00855 12.7924 7.78705 12.7914C7.57818 12.7904 7.36933 12.7902 7.16047 12.7906C7.08447 12.7906 7.00846 12.7904 6.93246 12.7898C5.73144 12.7811 4.53575 13.1261 3.65448 13.9747C3.59184 14.0369 3.53008 14.0998 3.46855 14.1631C3.41657 14.2153 3.41657 14.2153 3.36354 14.2685C2.50334 15.1732 2.15731 16.3758 2.1493 17.6016C2.14812 17.7032 2.14691 17.8047 2.14567 17.9063C2.14393 18.0653 2.14237 18.2243 2.14126 18.3832C2.14009 18.5375 2.13815 18.6917 2.1361 18.8459C2.13596 18.8932 2.13582 18.9406 2.13568 18.9893C2.13069 19.3069 2.10015 19.5224 1.89404 19.7743C1.7035 19.9302 1.53655 20.0106 1.28907 19.9936C1.04465 19.9545 0.899339 19.853 0.750141 19.6554C0.652294 19.4851 0.631149 19.3664 0.630403 19.1732C0.630133 19.1257 0.629864 19.0783 0.629586 19.0294C0.629539 18.9779 0.629492 18.9264 0.629443 18.8733C0.629303 18.8199 0.629162 18.7665 0.629017 18.7116C0.628803 18.5981 0.628686 18.4847 0.628711 18.3712C0.628714 18.2563 0.628426 18.1414 0.627844 18.0265C0.620078 16.3773 0.620078 16.3773 0.834678 15.7218C0.845692 15.6868 0.856705 15.6519 0.868052 15.6158C1.38479 14.0221 2.45865 12.6839 3.95248 11.9107C4.03033 11.8717 4.10857 11.8336 4.18712 11.7961C4.23398 11.7736 4.28084 11.7511 4.32912 11.7279C4.66817 11.5794 5.01383 11.4876 5.37329 11.4024C5.41826 11.3917 5.46323 11.3809 5.50956 11.3698C6.08157 11.2412 6.65933 11.2402 7.24269 11.2404Z" fill="#292A2E"/>
<path d="M22.8141 13.6214C23.8653 14.5024 24.4812 15.7158 24.6029 17.0797C24.6173 17.4052 24.6161 17.7314 24.6177 18.0571C24.6184 18.1627 24.6196 18.2682 24.6212 18.3737C24.6235 18.5269 24.6244 18.6802 24.625 18.8335C24.626 18.8802 24.6269 18.9268 24.6279 18.9749C24.6271 19.2857 24.572 19.5271 24.3916 19.7849C24.2387 19.9254 24.0482 19.9846 23.8439 20C23.6486 19.9914 23.492 19.9332 23.3447 19.8038C23.0734 19.5068 23.0693 19.2075 23.0697 18.8211C23.0688 18.7212 23.0679 18.6213 23.067 18.5213C23.0661 18.3652 23.0654 18.209 23.0651 18.0529C23.0631 17.3158 23.0544 16.6056 22.7008 15.9384C22.6841 15.9032 22.6674 15.868 22.6501 15.8317C22.3983 15.3281 22.0208 14.9068 21.5595 14.5858C21.5277 14.5634 21.4958 14.541 21.463 14.5179C20.7043 14.0252 19.7985 13.8905 18.9151 14.0363C18.3375 14.1682 17.741 14.4634 17.3256 14.8916C17.2481 14.9662 17.2481 14.9662 17.1636 14.9662C17.1525 14.9906 17.1414 15.0149 17.1299 15.04C17.0762 15.1405 17.0144 15.2194 16.9417 15.307C16.4497 15.9309 16.2145 16.6618 16.2165 17.4488C16.216 17.5028 16.2156 17.5568 16.2151 17.6125C16.2134 17.8126 16.2128 18.0127 16.2123 18.2129C16.2117 18.41 16.2103 18.607 16.2086 18.8041C16.2087 18.8557 16.2088 18.9072 16.209 18.9603C16.206 19.2906 16.1823 19.5101 15.9721 19.7743C15.7955 19.9156 15.6413 19.9972 15.4112 19.9954C15.1656 19.961 15.0065 19.8682 14.8216 19.7064C14.6257 19.4428 14.6561 19.1066 14.6555 18.7937C14.6552 18.7426 14.655 18.6916 14.6547 18.639C14.6542 18.5309 14.654 18.4228 14.6541 18.3146C14.6539 18.152 14.6523 17.9895 14.6507 17.8269C14.6435 16.2444 15.0795 14.9819 16.1871 13.8266C16.7731 13.2377 17.582 12.791 18.3894 12.5992C18.4379 12.5874 18.4865 12.5756 18.5365 12.5635C20.0818 12.224 21.6005 12.6286 22.8141 13.6214Z" fill="#292B2E"/>
<path d="M20.6184 4.09151C20.6536 4.0913 20.6889 4.09108 20.7252 4.09086C20.8407 4.09027 20.9562 4.09031 21.0717 4.09041C21.1527 4.09024 21.2336 4.09006 21.3146 4.08986C21.4839 4.08954 21.6532 4.08956 21.8226 4.08978C22.0387 4.09002 22.2548 4.08931 22.4709 4.08833C22.638 4.0877 22.8051 4.08767 22.9722 4.0878C23.0519 4.08778 23.1315 4.08756 23.2111 4.08713C24.1952 4.0825 24.1952 4.0825 24.5157 4.36466C24.6545 4.51886 24.7135 4.66591 24.7719 4.86396C24.7835 4.90249 24.7835 4.90249 24.7954 4.9418C24.8414 5.16501 24.8257 5.40048 24.8274 5.62744C24.8286 5.68125 24.8298 5.73505 24.8311 5.79049C24.8337 6.18427 24.7891 6.54936 24.5447 6.87173C24.2646 7.13853 23.9566 7.15274 23.5864 7.15247C23.5532 7.15262 23.5201 7.15277 23.4859 7.15292C23.4142 7.15323 23.3424 7.15345 23.2707 7.15361C23.1565 7.15391 23.0423 7.15458 22.9281 7.15535C22.6035 7.15756 22.2788 7.15959 21.9542 7.16025C21.7552 7.16068 21.5562 7.16193 21.3572 7.16369C21.2821 7.16421 21.2069 7.16443 21.1317 7.16433C20.5228 7.16375 19.9413 7.21331 19.4038 7.5269C19.4008 7.18553 19.3986 6.84418 19.3972 6.50281C19.3965 6.34427 19.3956 6.18573 19.3942 6.0272C19.3928 5.874 19.3921 5.7208 19.3917 5.56759C19.3915 5.50935 19.391 5.45111 19.3904 5.39288C19.3825 4.69671 19.3825 4.69671 19.6336 4.40693C19.6693 4.37642 19.7051 4.3459 19.7419 4.31447C19.7672 4.29093 19.7925 4.26739 19.8185 4.24314C20.0619 4.09712 20.3425 4.09062 20.6184 4.09151Z" fill="#FDFEFE"/>
<path d="M0.594116 17.2065C0.608064 17.2065 0.622013 17.2065 0.636384 17.2065C0.636384 17.8063 0.636384 18.4061 0.636384 19.024C0.622436 19.024 0.608487 19.024 0.594116 19.024C0.580167 18.9543 0.566218 18.8845 0.551847 18.8127C0.537898 18.8127 0.523949 18.8127 0.509578 18.8127C0.507491 18.5975 0.505955 18.3824 0.504934 18.1672C0.504508 18.094 0.503931 18.0207 0.5032 17.9475C0.502177 17.8424 0.501696 17.7373 0.501322 17.6321C0.500886 17.5993 0.50045 17.5664 0.5 17.5326C0.499983 17.452 0.504407 17.3714 0.509578 17.291C0.537475 17.2631 0.565373 17.2352 0.594116 17.2065Z" fill="#D0D0D1"/>
<path d="M7.52623 4.86397C7.54018 4.86397 7.55413 4.86397 7.5685 4.86397C7.57313 4.90179 7.57776 4.9396 7.58253 4.97856C7.69271 5.81879 8.00701 6.4353 8.62522 7.01968C8.61127 7.04758 8.59732 7.07548 8.58295 7.10422C8.35859 6.93382 8.20104 6.73718 8.03346 6.51246C8.00703 6.47759 7.9806 6.44272 7.95338 6.40679C7.64192 5.96166 7.47336 5.40791 7.52623 4.86397Z" fill="#0E0D0E"/>
<path d="M7.69535 3.4691C7.74699 3.6178 7.72652 3.70833 7.68214 3.85745C7.59266 4.18868 7.56056 4.52354 7.52627 4.86397C7.51233 4.86397 7.49838 4.86397 7.484 4.86397C7.45769 3.90215 7.45769 3.90215 7.61081 3.59591C7.63871 3.59591 7.66661 3.59591 7.69535 3.59591C7.69535 3.55406 7.69535 3.51222 7.69535 3.4691Z" fill="#100F10"/>
<path d="M3.17268 12.3878C3.20058 12.4018 3.22848 12.4157 3.25722 12.4301C3.21897 12.4789 3.1801 12.5273 3.14098 12.5754C3.1194 12.6024 3.09783 12.6293 3.0756 12.6571C2.99418 12.735 2.94303 12.7469 2.83453 12.7682C2.7614 12.8308 2.7614 12.8308 2.70772 12.8951C2.67983 12.8811 2.65193 12.8672 2.62319 12.8528C2.6909 12.791 2.75873 12.7294 2.82661 12.6679C2.86437 12.6335 2.90212 12.5992 2.94103 12.5638C3.04588 12.4724 3.04588 12.4724 3.17268 12.3878Z" fill="#111112"/>
<path d="M7.52626 1.22886C7.52626 1.2707 7.52626 1.31255 7.52626 1.35566C7.49836 1.38356 7.47046 1.41146 7.44172 1.4402C7.41224 1.49589 7.38383 1.55218 7.35718 1.60928C7.31534 1.60928 7.27349 1.60928 7.23038 1.60928C7.20248 1.66507 7.17458 1.72086 7.14584 1.77835C7.11794 1.7644 7.09004 1.75045 7.0613 1.73608C7.21474 1.5687 7.36817 1.40131 7.52626 1.22886Z" fill="#131213"/>
<path d="M19.6151 2.83507C19.6151 2.86297 19.6151 2.89087 19.6151 2.91961C19.5312 2.94025 19.4473 2.96089 19.3633 2.98153C19.2915 3.00035 19.2206 3.02293 19.1502 3.04642C19.1502 3.01852 19.1502 2.99062 19.1502 2.96188C19.4249 2.83507 19.4249 2.83507 19.6151 2.83507Z" fill="#10C26F"/>
<path d="M8.24483 6.7238C8.40616 6.78953 8.50655 6.8944 8.62525 7.01968C8.6113 7.04758 8.59735 7.07548 8.58298 7.10422C8.4295 6.99223 8.33365 6.89211 8.24483 6.7238Z" fill="#1A1A1B"/>
<path d="M6.93438 1.90516C6.96228 1.91911 6.99018 1.93305 7.01892 1.94743C6.99102 2.00322 6.96312 2.05902 6.93438 2.1165C6.90648 2.1165 6.87859 2.1165 6.84984 2.1165C6.82195 2.1723 6.79405 2.22809 6.76531 2.28558C6.76531 2.11654 6.83826 2.04033 6.93438 1.90516Z" fill="#111112"/>
</svg>
