<svg width="480" height="130" viewBox="0 0 480 130" fill="none" xmlns="http://www.w3.org/2000/svg">
<g filter="url(#filter0_d_2049_3747)">
<rect x="20" y="16" width="440" height="90" fill="white"/>
</g>
<path d="M57.2204 60.9971L66.486 52.6795C67.1713 52.0639 67.1713 51.0684 66.486 50.4593C65.8008 49.8436 64.6927 49.8502 64.0074 50.4593L53.5097 59.8838C52.8463 60.4797 52.8317 61.4359 53.4587 62.0516L64.0001 71.5415C64.3428 71.8494 64.7947 72 65.2394 72C65.6841 72 66.1361 71.8494 66.4788 71.5415C67.164 70.9259 67.164 69.9304 66.4788 69.3213L57.2204 60.9971Z" fill="black"/>
<path d="M423 63.5C423 62.6371 422.328 61.9375 421.5 61.9375C420.672 61.9375 420 62.6371 420 63.5C420 64.3629 420.672 65.0625 421.5 65.0625C422.328 65.0625 423 64.3629 423 63.5Z" stroke="#484C52" stroke-width="3.91667" stroke-linecap="round" stroke-linejoin="round"/>
<path d="M423 52.5625C423 51.6996 422.328 51 421.5 51C420.672 51 420 51.6996 420 52.5625C420 53.4254 420.672 54.125 421.5 54.125C422.328 54.125 423 53.4254 423 52.5625Z" stroke="#484C52" stroke-width="3.91667" stroke-linecap="round" stroke-linejoin="round"/>
<path d="M423 74.4375C423 73.5746 422.328 72.875 421.5 72.875C420.672 72.875 420 73.5746 420 74.4375C420 75.3004 420.672 76 421.5 76C422.328 76 423 75.3004 423 74.4375Z" stroke="#484C52" stroke-width="3.91667" stroke-linecap="round" stroke-linejoin="round"/>
<defs>
<filter id="filter0_d_2049_3747" x="0" y="0" width="480" height="130" filterUnits="userSpaceOnUse" color-interpolation-filters="sRGB">
<feFlood flood-opacity="0" result="BackgroundImageFix"/>
<feColorMatrix in="SourceAlpha" type="matrix" values="0 0 0 0 0 0 0 0 0 0 0 0 0 0 0 0 0 0 127 0" result="hardAlpha"/>
<feOffset dy="4"/>
<feGaussianBlur stdDeviation="10"/>
<feComposite in2="hardAlpha" operator="out"/>
<feColorMatrix type="matrix" values="0 0 0 0 0 0 0 0 0 0 0 0 0 0 0 0 0 0 0.13 0"/>
<feBlend mode="normal" in2="BackgroundImageFix" result="effect1_dropShadow_2049_3747"/>
<feBlend mode="normal" in="SourceGraphic" in2="effect1_dropShadow_2049_3747" result="shape"/>
</filter>
</defs>
</svg>
