<svg width="21" height="20" viewBox="0 0 21 20" fill="none" xmlns="http://www.w3.org/2000/svg">
<path d="M16.9489 17.6714C17.0471 17.5852 17.1446 17.4982 17.2413 17.4102C17.3043 17.3531 17.3679 17.2967 17.4321 17.2409C17.9036 16.8297 18.2873 16.3588 18.655 15.8558C18.6721 15.8324 18.6893 15.809 18.7069 15.7848C20.1711 13.7549 20.775 11.07 20.3834 8.60621C20.3432 8.36888 20.2957 8.13339 20.2447 7.89815C20.2392 7.87217 20.2338 7.8462 20.2281 7.81943C19.8556 6.08426 19.0073 4.5083 17.8115 3.20345C17.7532 3.13963 17.6956 3.07523 17.6385 3.0103C17.4355 2.77996 17.2219 2.57281 16.9877 2.37412C16.9662 2.35565 16.9447 2.33718 16.9225 2.31815C15.0988 0.761601 12.8148 0.0086358 10.4349 0.000813354C10.3967 0.000567875 10.3585 0.000323576 10.3191 7.0659e-05C9.77911 -0.00208767 9.26106 0.0444213 8.72884 0.133602C8.66528 0.143705 8.60172 0.153788 8.53816 0.163848C6.76815 0.450599 5.06857 1.35982 3.76576 2.56727C3.71261 2.61332 3.6593 2.6592 3.60582 2.70488C3.30315 2.96897 3.0466 3.25815 2.79641 3.57163C2.76247 3.61311 2.72849 3.65455 2.69448 3.69597C1.26327 5.45456 0.501384 7.65423 0.501562 9.90889C0.501477 10.0291 0.500772 10.1492 0.500037 10.2694C0.492809 12.7623 1.5325 15.1522 3.2617 16.9375C3.28367 16.9602 3.30564 16.9829 3.32827 17.0063C3.61386 17.3003 3.90412 17.5773 4.23105 17.8259C4.25646 17.8456 4.28187 17.8653 4.30805 17.8856C4.77543 18.2469 5.25877 18.5556 5.78201 18.8303C5.81637 18.8485 5.85073 18.8667 5.88612 18.8854C6.79177 19.3578 7.76099 19.6651 8.76761 19.8347C8.80131 19.8409 8.83501 19.8471 8.86974 19.8535C11.6644 20.3621 14.8048 19.5252 16.9489 17.6714Z" fill="#43D19D"/>
<path d="M18.1879 14.0789C18.5016 13.7978 18.6075 13.2491 18.7377 12.8605C18.7573 12.8019 18.7772 12.7434 18.7974 12.685C19.2735 11.3033 19.3102 9.70591 19.0022 8.28447C18.9916 8.23221 18.9916 8.23221 18.9808 8.1789C18.8335 7.45563 18.6007 6.74171 18.2655 6.08259C18.0906 6.1325 17.917 6.18447 17.7457 6.24556C17.179 6.44722 16.5939 6.58165 16.0097 6.72208C15.8426 6.76249 15.6775 6.80715 15.5125 6.85518C15.5092 7.06016 15.5201 7.25371 15.5474 7.45741C15.7237 8.85491 15.7753 10.2823 15.6361 11.6839C15.6329 11.7162 15.6297 11.7485 15.6264 11.7817C15.5881 12.159 15.5356 12.5289 15.4574 12.9001C15.4346 13.038 15.4311 13.1668 15.435 13.3063C15.4793 13.3168 15.5236 13.3273 15.5692 13.3381C15.7374 13.378 15.9056 13.4183 16.0737 13.4586C16.1458 13.4759 16.2178 13.493 16.2899 13.5101C16.9351 13.6628 17.568 13.8429 18.1879 14.0789Z" fill="#FEFEFE"/>
<path d="M2.71946 14.0789C2.98334 14.0019 3.24426 13.9182 3.50463 13.8302C4.16571 13.6099 4.83002 13.4529 5.51119 13.3063C5.5069 13.2786 5.50261 13.2508 5.49818 13.2222C5.39362 12.5486 5.39362 12.5486 5.31005 11.8722C5.3059 11.8341 5.3059 11.8341 5.30166 11.7952C5.24209 11.2024 5.2306 10.6085 5.23008 10.0131C5.23001 9.9739 5.22995 9.93465 5.22988 9.89421C5.22979 8.97018 5.29592 8.05681 5.41889 7.14127C5.43122 7.0313 5.43669 6.92697 5.43364 6.81655C5.41134 6.81232 5.38904 6.80808 5.36606 6.80372C4.51862 6.64065 3.68554 6.42189 2.86577 6.1526C2.75823 6.12122 2.75823 6.12122 2.64191 6.12122C2.35043 6.69582 2.14572 7.29479 1.99245 7.91991C1.98522 7.94897 1.97799 7.97803 1.97054 8.00797C1.94619 8.11265 1.92525 8.21751 1.90521 8.3231C1.90032 8.34862 1.89543 8.37414 1.8904 8.40044C1.79437 8.91713 1.76951 9.42415 1.77159 9.94901C1.77192 10.0755 1.7708 10.202 1.76957 10.3285C1.76714 11.0467 1.872 11.7237 2.07484 12.413C2.09231 12.4735 2.09231 12.4735 2.11013 12.5353C2.26763 13.0713 2.47476 13.5769 2.71946 14.0789Z" fill="#FEFEFE"/>
<path d="M6.75136 13.0746C6.81843 13.07 6.88547 13.0651 6.9525 13.0601C6.98984 13.0574 7.02718 13.0547 7.06564 13.052C7.19264 13.0385 7.31654 13.0202 7.44248 12.9996C7.73227 12.9543 8.02241 12.9288 8.31465 12.9055C8.4032 12.8984 8.49173 12.8911 8.58025 12.8836C9.00468 12.849 9.42765 12.8265 9.85328 12.8042C9.85328 10.994 9.85328 9.18384 9.85328 7.3188C9.39265 7.29331 8.93201 7.26781 8.45742 7.24154C8.09485 7.20587 7.73334 7.1689 7.37175 7.12566C7.30061 7.11742 7.22948 7.10922 7.15834 7.10106C7.0097 7.08394 6.86112 7.06637 6.71259 7.0484C6.64854 7.39719 6.60762 7.74571 6.57446 8.09864C6.56715 8.17292 6.56715 8.17292 6.55969 8.24871C6.50023 8.86933 6.47186 9.48636 6.47267 10.1098C6.4727 10.1433 6.47272 10.1767 6.47274 10.2112C6.47711 12.5282 6.47711 12.5282 6.75136 13.0746Z" fill="#FEFEFE"/>
<path d="M14.1957 13.0746C14.6533 11.1193 14.4926 9.05692 14.2344 7.08703C13.6365 7.12381 13.6365 7.12381 13.3523 7.16187C13.063 7.19806 12.7731 7.22228 12.4823 7.24396C12.422 7.24855 12.422 7.24855 12.3605 7.25323C11.9384 7.28368 11.5171 7.29963 11.0938 7.3188C11.0938 9.12899 11.0938 10.9392 11.0938 12.8042C12.0534 12.8807 12.0534 12.8807 13.0325 12.9587C13.963 13.0746 13.963 13.0746 14.1957 13.0746Z" fill="#FDFEFE"/>
<path d="M11.0938 6.08262C11.719 6.08262 11.719 6.08262 12.003 6.05289C12.0349 6.04974 12.0668 6.04658 12.0997 6.04333C12.1664 6.03667 12.233 6.02988 12.2997 6.02297C12.3991 6.01269 12.4985 6.00292 12.598 5.99321C13.043 5.94872 13.4833 5.88615 13.9243 5.81221C13.8056 4.75195 13.2574 3.62323 12.6447 2.76047C12.6206 2.72618 12.6206 2.72618 12.5961 2.69119C12.2204 2.16014 11.7667 1.62206 11.1713 1.33118C11.1457 1.33118 11.1201 1.33118 11.0938 1.33118C11.0938 2.89915 11.0938 4.46713 11.0938 6.08262Z" fill="#FCFEFD"/>
<path d="M9.85394 6.08262C9.85394 4.51464 9.85394 2.94667 9.85394 1.33118C9.49974 1.50762 9.2706 1.67906 9.00091 1.94925C8.95533 1.99467 8.95533 1.99467 8.90882 2.041C8.55544 2.41318 8.2806 2.85241 8.01945 3.29163C8.00455 3.31666 7.98966 3.34168 7.97432 3.36747C7.75399 3.74563 7.57054 4.13853 7.40875 4.54468C7.39209 4.58637 7.37543 4.62805 7.35826 4.67101C7.02344 5.5219 7.02344 5.5219 7.02344 5.85084C7.63217 5.93669 8.23944 6.01355 8.85309 6.05364C8.89993 6.05673 8.94677 6.05981 8.99502 6.06298C9.28297 6.08027 9.56404 6.08262 9.85394 6.08262Z" fill="#FDFEFE"/>
<path d="M9.85394 18.6758C9.85394 17.1461 9.85394 15.6163 9.85394 14.0402C9.37392 14.0402 8.91326 14.0439 8.43869 14.0909C8.38354 14.0961 8.32838 14.1013 8.27323 14.1065C7.85429 14.1468 7.43829 14.2012 7.02344 14.272C7.07479 14.5967 7.17624 14.8987 7.29001 15.2064C7.29927 15.2316 7.30852 15.2568 7.31806 15.2827C7.56525 15.9507 7.87899 16.5938 8.30298 17.1692C8.31996 17.1927 8.33693 17.2162 8.35442 17.2405C9.392 18.6758 9.392 18.6758 9.85394 18.6758Z" fill="#FDFEFD"/>
<path d="M11.0938 18.7145C11.7365 18.501 12.1992 17.8654 12.5672 17.3238C12.586 17.2964 12.6047 17.2689 12.6241 17.2407C13.2053 16.3841 13.712 15.3762 13.8855 14.3493C12.5517 14.1522 12.5517 14.1522 12.0752 14.1055C12.0327 14.1011 12.0327 14.1011 11.9894 14.0966C11.6893 14.0696 11.3982 14.0789 11.0938 14.0789C11.0938 15.6086 11.0938 17.1384 11.0938 18.7145Z" fill="#FDFEFE"/>
<path d="M5.70311 5.61869C5.71047 5.59546 5.71784 5.57223 5.72543 5.54829C6.14645 4.23093 6.69713 2.9734 7.48671 1.83299C7.40916 1.79436 7.40916 1.79436 7.33963 1.81637C7.31175 1.82893 7.28386 1.84148 7.25513 1.85442C7.22376 1.86844 7.1924 1.88246 7.16009 1.8969C7.12632 1.91246 7.09256 1.92802 7.05777 1.94405C7.02306 1.95988 6.98835 1.97571 6.95258 1.99203C6.24811 2.31694 5.61101 2.6997 5.00517 3.18503C4.98348 3.20234 4.96179 3.21966 4.93944 3.2375C4.38719 3.68249 3.56798 4.35154 3.33789 5.03924C3.91014 5.2427 4.49282 5.39739 5.08272 5.54143C5.1155 5.54967 5.14829 5.55791 5.18206 5.5664C5.36065 5.60929 5.51937 5.62648 5.70311 5.61869Z" fill="#FCFEFD"/>
<path d="M15.2019 5.58047C15.7224 5.54508 16.2301 5.4162 16.7346 5.28942C16.8171 5.2687 16.8997 5.24829 16.9823 5.2279C17.0356 5.21461 17.0888 5.20131 17.1421 5.18799C17.1893 5.17618 17.2366 5.16438 17.2853 5.15221C17.3964 5.12126 17.5 5.08487 17.6059 5.03965C17.2548 4.28822 16.5053 3.61006 15.861 3.10818C15.8242 3.07815 15.7874 3.04812 15.7495 3.01719C15.271 2.6347 14.7416 2.32643 14.1889 2.06276C14.16 2.04894 14.1311 2.03512 14.1014 2.02088C13.8921 1.92436 13.6791 1.85587 13.457 1.79477C13.4739 1.82096 13.4908 1.84716 13.5082 1.87414C13.5313 1.9101 13.5544 1.94605 13.5782 1.98309C13.6007 2.01805 13.6232 2.053 13.6464 2.08902C14.3287 3.17517 14.8472 4.34847 15.2019 5.58047Z" fill="#FCFEFD"/>
<path d="M7.37321 18.0576C7.36074 18.0362 7.34827 18.0149 7.33542 17.9929C7.08971 17.5714 6.84936 17.1497 6.6375 16.7102C6.59399 16.6206 6.54945 16.5315 6.50488 16.4424C6.20072 15.8278 5.95906 15.193 5.7447 14.5423C5.39673 14.5977 5.05664 14.6799 4.71519 14.7654C4.62304 14.7885 4.53081 14.8112 4.43857 14.8338C4.10617 14.9163 3.7799 15.0066 3.45703 15.1217C3.48886 15.2742 3.54811 15.3456 3.65575 15.4597C3.70313 15.5106 3.70313 15.5106 3.75147 15.5625C3.78226 15.5955 3.81305 15.6285 3.84477 15.6625C3.89185 15.7163 3.93872 15.7702 3.98533 15.8243C4.20522 16.0744 4.43989 16.2897 4.70037 16.4978C4.7752 16.5582 4.84906 16.6199 4.92181 16.6828C5.52938 17.2067 6.23993 17.6 6.96123 17.9465C6.99332 17.9621 7.0254 17.9777 7.05845 17.9937C7.08825 18.0077 7.11804 18.0217 7.14874 18.0362C7.18851 18.055 7.18851 18.055 7.22907 18.0742C7.29566 18.0962 7.29566 18.0962 7.37321 18.0576Z" fill="#FCFEFD"/>
<path d="M13.4961 18.1736C14.5826 17.8509 15.5838 17.1183 16.4041 16.358C16.4565 16.3128 16.509 16.2677 16.5617 16.2228C16.8414 15.9795 17.0947 15.7128 17.3347 15.4309C17.3545 15.4085 17.3742 15.386 17.3945 15.3629C17.5286 15.2084 17.5286 15.2084 17.5286 15.1219C16.9938 14.9724 16.4567 14.8487 15.9122 14.7404C15.882 14.7344 15.8518 14.7283 15.8206 14.7221C15.7339 14.7048 15.6471 14.6877 15.5604 14.6707C15.5343 14.6655 15.5082 14.6604 15.4814 14.655C15.3586 14.6314 15.2506 14.6197 15.1246 14.6197C15.1128 14.6629 15.1009 14.7062 15.0887 14.7507C14.759 15.9164 14.282 17.0496 13.5746 18.0385C13.5349 18.0964 13.5349 18.0964 13.4961 18.1736Z" fill="#FCFEFD"/>
<path d="M12.2189 2.21973C12.2317 2.18148 12.2445 2.14324 12.2577 2.10384C12.0274 1.8935 12.0274 1.8935 11.7924 1.67891C11.7668 1.69166 11.7412 1.70441 11.7148 1.71754C11.8812 1.88326 12.0475 2.04898 12.2189 2.21973Z" fill="#28C98F"/>
<path d="M7.21484 5.00098C7.32472 4.87723 7.35135 4.77766 7.36994 4.61468C7.33155 4.62743 7.29317 4.64018 7.25362 4.65331C7.24082 4.76804 7.22803 4.88277 7.21484 5.00098Z" fill="#2CCD92"/>
</svg>
