<svg width="21" height="20" viewBox="0 0 21 20" fill="none" xmlns="http://www.w3.org/2000/svg">
<path d="M11.4 4.28571C11.4 3.81233 10.9971 3.42857 10.5 3.42857C10.0029 3.42857 9.6 3.81233 9.6 4.28571V10C9.6 10.2955 9.75986 10.5702 10.023 10.7269L13.623 12.8697C14.0445 13.1206 14.5998 12.9986 14.8632 12.5971C15.1266 12.1957 14.9985 11.6669 14.577 11.416L11.4 9.52493V4.28571Z" fill="black"/>
<path fill-rule="evenodd" clip-rule="evenodd" d="M10.5 0C4.70101 0 0 4.47715 0 10C0 15.5228 4.70101 20 10.5 20C16.299 20 21 15.5228 21 10C21 4.47715 16.299 0 10.5 0ZM1.8 10C1.8 5.42393 5.69512 1.71429 10.5 1.71429C15.3049 1.71429 19.2 5.42393 19.2 10C19.2 14.5761 15.3049 18.2857 10.5 18.2857C5.69512 18.2857 1.8 14.5761 1.8 10Z" fill="black"/>
</svg>
