<svg width="30" height="31" viewBox="0 0 30 31" fill="none" xmlns="http://www.w3.org/2000/svg">
<path fill-rule="evenodd" clip-rule="evenodd" d="M22.3256 27.5409C22.4955 25.0474 24.3218 22.7511 26.7075 22.0312C28.1409 21.5986 29.1392 20.2178 29.4949 18.759C29.8506 17.3003 29.6641 15.7662 29.3889 14.29C28.5103 9.57688 26.4791 4.71254 22.3909 2.22878C17.9584 -0.464244 12.2448 0.307936 7.35965 2.04245C5.23043 2.79846 3.01734 3.84209 1.89902 5.81083C1.21116 7.02177 1.02226 8.44474 0.846389 9.8273C0.486757 12.6545 0.126505 15.5089 0.386268 18.3471C0.646032 21.1853 1.58091 24.0458 3.51124 26.137C4.85555 27.5933 6.91562 28.6557 8.79651 28.0401C10.2706 27.5576 11.6229 28.9325 13.0188 29.6098C14.9242 30.5345 17.1735 30.1516 19.2516 29.749C20.5884 29.49 22.2327 28.9037 22.3256 27.5409Z" fill="white"/>
</svg>
