<svg width="4" height="11" viewBox="0 0 4 11" fill="none" xmlns="http://www.w3.org/2000/svg">
<path d="M1.74479 0.345703C1.9287 0.345703 2.1126 0.345703 2.30208 0.345703C2.50297 1.45398 2.70128 2.56268 2.89734 3.67182C2.96422 4.0482 3.03178 4.42446 3.10006 4.80059C3.79731 8.64665 3.79731 8.64665 3.69531 10.6436C3.60336 10.4599 3.51141 10.2762 3.41667 10.0869C3.1523 10.0467 2.88794 10.0065 2.61556 9.96515C1.74479 9.80859 1.74479 9.80859 1.22233 9.4259C0.908854 8.97363 0.908854 8.97363 0.908854 8.13867C0.724948 8.13867 0.541042 8.13867 0.351563 8.13867C0.32881 7.52422 0.312696 6.90952 0.299316 6.2948C0.284769 5.7814 0.284769 5.7814 0.269928 5.25762C0.358094 4.16094 0.651357 3.5214 1.1875 2.57227C1.29478 2.11151 1.39034 1.64762 1.46615 1.18066C1.5581 0.905127 1.65005 0.62959 1.74479 0.345703Z" fill="#FBB32A"/>
</svg>
