<svg width="3" height="9" viewBox="0 0 3 9" fill="none" xmlns="http://www.w3.org/2000/svg">
<path d="M2.27865 0.496094C2.3706 0.496094 2.46255 0.496094 2.55729 0.496094C2.46567 2.38749 2.09832 4.12129 1.59945 5.94073C1.53886 6.16618 1.47826 6.39162 1.41584 6.6239C1.25728 7.18443 1.07333 7.73766 0.885417 8.28906C0.70151 8.38091 0.517604 8.47275 0.328125 8.56738C0.679377 6.92112 1.08646 5.30745 1.55809 3.69134C1.76406 2.93863 1.76406 2.93863 1.72135 1.8877C1.16964 2.16323 1.16964 2.16323 0.606771 2.44434C0.878635 2.11881 1.1517 1.79429 1.42529 1.47021C1.57723 1.28939 1.72917 1.10857 1.88571 0.922272C2.08021 0.711314 2.08021 0.711314 2.27865 0.496094Z" fill="#2892CE"/>
</svg>
