<svg width="22" height="7" viewBox="0 0 22 7" fill="none" xmlns="http://www.w3.org/2000/svg">
<path d="M5.23377 0.13198C5.49297 0.131352 5.75217 0.130724 6.01923 0.130077C6.4413 0.132095 6.4413 0.132095 6.8719 0.134154C7.16334 0.1355 7.45478 0.136845 7.75505 0.138231C8.72044 0.145325 9.6857 0.156675 10.651 0.168944C11.1717 0.174191 11.1717 0.174191 11.7029 0.179544C12.7573 0.192701 13.8113 0.214352 14.8656 0.238524C15.3631 0.244377 15.3631 0.244377 15.8707 0.250348C17.6307 0.301082 18.8021 0.348575 20.125 1.56055C21.0542 2.89086 21.1246 4.16315 20.9609 5.73535C20.869 5.91904 20.777 6.10273 20.6823 6.29199C18.0349 6.29843 15.3876 6.30338 12.7403 6.30641C11.5111 6.30787 10.282 6.30984 9.05283 6.31299C7.86764 6.316 6.68245 6.31767 5.49725 6.3184C5.04406 6.31891 4.59088 6.31992 4.1377 6.32142C3.50513 6.32343 2.87259 6.32372 2.24003 6.32359C1.69892 6.32451 1.69892 6.32451 1.14688 6.32546C0.341139 6.29199 0.341139 6.29199 0.062493 6.01367C-0.106136 4.36304 0.216867 3.16876 1.17708 1.83887C2.40648 0.70858 3.54608 0.134323 5.23377 0.13198Z" fill="#FCFEFD"/>
</svg>
