<svg width="25" height="73" viewBox="0 0 25 73" fill="none" xmlns="http://www.w3.org/2000/svg">
<path d="M16.8177 0.30957C17.3251 0.497753 17.8231 0.711221 18.3154 0.935791C19.8023 1.58149 21.2575 2.01915 22.8369 2.37523C23.5052 2.53613 23.5052 2.53613 24.0625 2.81445C23.989 3.30181 23.913 3.78879 23.8361 4.27563C23.7731 4.68248 23.7731 4.68248 23.7088 5.09755C23.0119 8.71525 21.8762 12.2303 20.8232 15.7563C20.6303 16.4043 20.4375 17.0523 20.2447 17.7002C19.7532 19.3518 19.2609 21.0032 18.7683 22.6545C18.093 24.9185 17.4185 27.1828 16.7439 29.447C16.3736 30.6898 16.0033 31.9325 15.633 33.1753C15.5586 33.4249 15.4842 33.6745 15.4076 33.9317C14.8785 35.7075 14.3493 37.4834 13.82 39.2592C11.4062 47.3576 11.4062 47.3576 8.99702 55.4574C8.81376 56.0741 8.63038 56.6908 8.44687 57.3075C7.63432 60.0386 6.82431 62.7697 6.06046 65.5148C6.0072 65.7054 5.95393 65.8959 5.89906 66.0923C5.66842 66.9187 5.44091 67.7456 5.2201 68.5747C4.8181 70.0353 4.43903 71.2335 3.44271 72.3945C2.46745 72.5685 2.46745 72.5685 1.49219 72.3945C0.833201 71.8749 0.472262 71.4703 0.0989625 70.7246C-0.0721374 68.7818 0.464474 66.9699 0.917485 65.0919C1.00529 64.7212 1.09292 64.3504 1.18038 63.9796C1.41773 62.9759 1.65785 61.9728 1.89854 60.9699C2.10193 60.1208 2.30369 59.2714 2.50544 58.4219C4.13235 51.5724 5.79202 44.7308 7.45725 37.8906C8.7635 32.5249 10.0627 27.1576 11.3525 21.788C11.5049 21.1533 11.6576 20.5187 11.8102 19.884C12.7602 15.9318 13.7062 11.9792 14.5885 8.01122C14.6791 7.60402 14.6791 7.60402 14.7716 7.1886C15.0392 5.98147 15.303 4.77369 15.561 3.56448C15.6059 3.35792 15.6509 3.15136 15.6972 2.93855C15.8139 2.40202 15.9281 1.86496 16.0421 1.32786C16.1142 1.08367 16.1862 0.83948 16.2604 0.587891C16.4443 0.496045 16.6282 0.404199 16.8177 0.30957Z" fill="#4A2C79"/>
</svg>
