<svg width="14" height="6" viewBox="0 0 14 6" fill="none" xmlns="http://www.w3.org/2000/svg">
<path d="M2.70311 0.483398C6.38124 0.483398 10.0594 0.483398 13.8489 0.483398C13.013 2.98828 13.013 2.98828 12.7344 3.54492C9.88382 3.54492 7.03327 3.54492 4.09634 3.54492C3.91244 4.00415 3.72853 4.46338 3.53905 4.93652C3.26041 5.21484 3.26041 5.21484 2.68461 5.24202C2.45509 5.23879 2.22556 5.23557 1.98908 5.23224C1.75884 5.22973 1.5286 5.22722 1.29138 5.22463C1.02468 5.21979 1.02468 5.21979 0.752594 5.21484C0.866339 4.84302 0.983087 4.47212 1.1009 4.10156C1.16556 3.89491 1.23021 3.68826 1.29682 3.47534C1.68926 2.44567 2.20982 1.46884 2.70311 0.483398Z" fill="#DCDEE3"/>
</svg>
