<svg width="28" height="69" viewBox="0 0 28 69" fill="none" xmlns="http://www.w3.org/2000/svg">
<path d="M9.26563 0.701172C9.91334 1.48635 10.256 2.13965 10.5192 3.12017C10.59 3.37911 10.6609 3.63805 10.7339 3.90485C10.8079 4.18514 10.8819 4.46543 10.9582 4.75421C11.0383 5.04921 11.1184 5.34421 11.201 5.64815C11.458 6.5962 11.7116 7.54511 11.965 8.49414C12.2961 9.72364 12.6284 10.9528 12.9609 12.1819C13.0456 12.4955 13.1303 12.8092 13.2175 13.1323C14.0872 16.3432 15.0065 19.5393 15.9261 22.7362C16.7848 25.7297 17.6318 28.7265 18.479 31.7233C18.7781 32.7814 19.0775 33.8393 19.378 34.897C20.729 39.6545 22.0425 44.4174 23.2662 49.2092C24.022 52.1649 24.8311 55.1024 25.6709 58.0352C25.8038 58.5023 25.9366 58.9694 26.0693 59.4365C26.3088 60.2793 26.5489 61.1219 26.7897 61.9643C26.8412 62.1447 26.8928 62.3252 26.9459 62.5112C27.0496 62.8728 27.1541 63.2342 27.2593 63.5954C27.6406 64.9088 27.8153 65.8584 27.6563 67.2197C27.0815 67.7938 27.0815 67.7938 26.263 68.0547C24.5548 68.0253 24.5548 68.0253 23.8817 67.3337C23.3535 66.4594 23.0497 65.5451 22.7419 64.5779C22.6749 64.3738 22.608 64.1697 22.539 63.9594C22.3959 63.5226 22.2536 63.0855 22.1122 62.6481C21.7403 61.4982 21.3615 60.3505 20.9829 59.2028C20.9086 58.977 20.8342 58.7511 20.7576 58.5184C20.2099 56.8606 19.63 55.2174 19.0182 53.582C17.9107 50.6039 16.915 47.5901 15.9169 44.5742C15.1175 42.1607 14.3063 39.7519 13.478 37.3481C13.3429 36.9558 13.3429 36.9558 13.2052 36.5556C12.7638 35.2738 12.3209 33.9926 11.8762 32.712C11.7156 32.2465 11.5551 31.7809 11.3947 31.3153C11.3199 31.1018 11.2452 30.8883 11.1682 30.6684C10.8803 29.8296 10.6589 29.1483 10.6589 28.2549C10.383 28.1171 10.383 28.1171 10.1016 27.9766C9.9102 27.4733 9.9102 27.4733 9.7304 26.8035C9.21278 24.9819 8.59197 23.2033 7.95947 21.4186C7.89608 21.2393 7.83269 21.06 7.76738 20.8753C6.33622 16.8388 4.77304 12.8542 3.19671 8.87241C3.10232 8.63346 3.00793 8.39451 2.91068 8.14832C2.73286 7.69857 2.5544 7.24906 2.3752 6.79985C2.01416 5.88723 1.68657 4.99646 1.46354 4.04102C1.27964 4.04102 1.09573 4.04102 0.90625 4.04102C0.90625 3.58179 0.90625 3.12256 0.90625 2.64941C1.24154 2.57572 1.24154 2.57572 1.58361 2.50054C2.59442 2.2781 3.60507 2.05498 4.61572 1.83185C4.96755 1.75453 5.31938 1.67722 5.68187 1.59756C6.18698 1.48589 6.18698 1.48589 6.7023 1.37197C7.01311 1.30346 7.32393 1.23496 7.64416 1.16438C8.44503 0.988333 8.44503 0.988333 9.26563 0.701172Z" fill="#331F53"/>
</svg>
