<svg width="8" height="15" viewBox="0 0 8 15" fill="none" xmlns="http://www.w3.org/2000/svg">
<path d="M4.74479 0.345703C4.92869 0.345703 5.1126 0.345703 5.30208 0.345703C5.33991 0.565429 5.37773 0.785154 5.41671 1.01154C5.56104 1.84962 5.70547 2.68768 5.84996 3.52574C5.91412 3.89807 5.97824 4.2704 6.04232 4.64274C6.50048 7.30637 6.50048 7.30637 6.97395 9.96732C7.01299 10.1835 7.05203 10.3997 7.09225 10.6224C7.19315 11.1779 7.29521 11.7332 7.39736 12.2885C7.53124 13.1484 7.53124 13.1484 7.53124 14.2617C5.2326 14.208 3.29268 13.6515 1.46961 12.2037C0.877867 11.4422 0.976764 10.7381 1.00919 9.80424C1.46081 6.49046 3.2918 3.32031 4.74479 0.345703Z" fill="#FD981C"/>
</svg>
