<svg width="26" height="21" viewBox="0 0 26 21" fill="none" xmlns="http://www.w3.org/2000/svg">
<path d="M7.30451 0.142427C7.50511 0.143304 7.70571 0.144182 7.91239 0.145086C10.4466 0.159996 12.9806 0.200543 15.5144 0.251418C16.073 0.262185 16.6317 0.271864 17.1903 0.2805C18.012 0.293264 18.8336 0.309357 19.6553 0.326162C19.9017 0.329377 20.1482 0.332592 20.4022 0.335904C23.5789 0.410483 23.5789 0.410483 24.9844 0.998045C25.3451 2.079 25.0428 2.7707 24.7079 3.81278C24.6462 4.01159 24.5845 4.2104 24.5209 4.41524C24.3177 5.06857 24.1112 5.72081 23.9046 6.37311C23.764 6.82325 23.6236 7.27349 23.4835 7.7238C23.2687 8.41429 23.0537 9.10473 22.8379 9.7949C22.0724 12.2444 21.3386 14.7031 20.6082 17.1632C20.4586 17.6667 20.3084 18.1702 20.1581 18.6736C20.074 18.9567 19.99 19.2398 19.9033 19.5315C19.6901 20.2021 19.6901 20.2021 19.4115 20.7588C17.7459 20.8072 16.0808 20.8424 14.4147 20.8658C13.8488 20.8756 13.2828 20.8888 12.717 20.9058C11.9007 20.9296 11.085 20.9405 10.2684 20.949C10.0178 20.9591 9.76723 20.9692 9.50906 20.9795C7.75185 20.9806 6.89776 20.5236 5.65149 19.2916C5.42826 19.0535 5.42826 19.0535 5.20052 18.8105C4.98716 18.6025 4.7738 18.3944 4.55398 18.18C1.77794 15.1311 0.92931 12.2296 0.463542 8.23437C0.426904 7.92188 0.390267 7.60939 0.352519 7.28743C0.274813 6.48925 0.222608 5.69552 0.184896 4.89453C0.157956 4.44086 0.157956 4.44086 0.130473 3.97803C0.119697 3.67774 0.108921 3.37744 0.097819 3.06805C0.0874024 2.7979 0.0769859 2.52774 0.0662537 2.2494C0.184896 1.55469 0.184896 1.55469 0.639872 1.06328C2.58411 0.0506352 5.15467 0.132287 7.30451 0.142427Z" fill="#FEC827"/>
</svg>
