<svg width="11" height="38" viewBox="0 0 11 38" fill="none" xmlns="http://www.w3.org/2000/svg">
<path d="M1.02084 0.146484C7.02487 5.8779 10.5841 13.7023 10.8219 21.9963C10.8409 23.1355 10.8393 24.2744 10.8308 25.4138C10.8257 26.1134 10.8251 26.813 10.8251 27.5127C10.8206 29.7554 10.7783 31.9952 10.6657 34.2353C10.6573 34.4305 10.6489 34.6257 10.6403 34.8268C10.5825 35.822 10.4734 36.5898 9.9375 37.4414C5.67833 35.208 3.17881 28.5306 1.79984 24.1956C0.53669 19.9759 0.121723 15.7745 0.115239 11.3837C0.114262 11.0823 0.114262 11.0823 0.113266 10.7749C0.108887 7.18046 0.418795 3.69367 1.02084 0.146484Z" fill="#39256A"/>
</svg>
