<svg width="82" height="35" viewBox="0 0 82 35" fill="none" xmlns="http://www.w3.org/2000/svg">
<path d="M68.2125 0.351081C69.068 0.347075 69.9236 0.34427 70.7791 0.341766C71.178 0.340396 71.5768 0.338585 71.9757 0.336304C72.5227 0.333313 73.0697 0.332274 73.6167 0.331329C73.9237 0.330204 74.2307 0.329078 74.547 0.327919C75.3187 0.358236 76.0151 0.463008 76.7656 0.638664C77.8751 6.97348 78.8554 13.3271 79.8068 19.6872C79.8997 20.3078 79.9929 20.9284 80.0862 21.5489C80.7103 25.7051 81.3286 29.8581 81.7813 34.0371C77.3828 34.3134 72.9988 34.3536 68.5927 34.347C67.8424 34.3469 67.0921 34.347 66.3418 34.3471C64.7383 34.3473 63.1347 34.3464 61.5312 34.3448C59.2129 34.3426 56.8945 34.3419 54.5762 34.3415C50.8132 34.3409 47.0502 34.3391 43.2872 34.3364C39.6357 34.3339 35.9842 34.3319 32.3326 34.3307C32.1069 34.3306 31.8811 34.3306 31.6485 34.3305C30.5158 34.3301 29.383 34.3298 28.2502 34.3294C18.8795 34.3265 9.50877 34.3217 0.138031 34.3154C0.138031 34.2236 0.138031 34.1317 0.138031 34.0371C9.79311 33.9453 19.4482 33.8534 29.3958 33.7588C29.4878 33.2995 29.5797 32.8403 29.6745 32.3672C29.9411 31.6795 30.2175 31.0049 30.5104 30.3287C30.6389 30.0273 30.6389 30.0273 30.77 29.7198C30.9562 29.2832 31.1428 28.8468 31.33 28.4107C31.8395 27.2224 32.3442 26.0322 32.8484 24.8417C32.9539 24.5927 33.0593 24.3438 33.168 24.0873C34.2275 21.579 35.2525 19.0571 36.2712 16.532C36.5702 15.7917 36.8705 15.052 37.1713 14.3124C37.9947 12.2848 38.8156 10.2573 39.5959 8.21263C39.8859 7.45487 40.1818 6.69951 40.4787 5.94442C40.6737 5.44109 40.8597 4.9343 41.0454 4.42745C41.1636 4.12825 41.2819 3.82906 41.4037 3.5208C41.5005 3.26435 41.5973 3.00789 41.6971 2.74366C42.5155 1.61313 43.3981 1.07814 44.7214 0.638664C46.2611 0.437606 47.7857 0.437409 49.3364 0.441883C49.7919 0.438217 50.2473 0.433953 50.7027 0.429129C51.9031 0.418056 53.1033 0.415207 54.3036 0.414091C55.4906 0.411542 56.6776 0.401077 57.8645 0.391328C59.9557 0.375386 62.0468 0.36721 64.138 0.364072C65.4962 0.362026 66.8543 0.357743 68.2125 0.351081Z" fill="#F2F3F4"/>
</svg>
