<svg width="8" height="7" viewBox="0 0 8 7" fill="none" xmlns="http://www.w3.org/2000/svg">
<path d="M2.50781 0.648438C4.16297 0.648438 5.81813 0.648438 7.52344 0.648438C7.25907 1.36024 6.99471 2.07205 6.72233 2.80542C6.64012 3.02777 6.55791 3.25012 6.47321 3.47921C6.12296 4.417 5.77298 5.33282 5.29427 6.21484C5.01563 5.6582 5.01563 5.6582 5.35414 4.62972C5.51199 4.21794 5.67209 3.80701 5.83415 3.39685C5.91515 3.18697 5.99614 2.97709 6.0796 2.76085C6.28033 2.24152 6.48367 1.7232 6.6875 1.20508C5.67602 1.20508 4.66453 1.20508 3.6224 1.20508C3.53044 1.66431 3.43849 2.12354 3.34375 2.59668C3.07336 3.23483 2.78793 3.86675 2.4904 4.49274C2.33774 4.81599 2.18508 5.13924 2.0278 5.47229C1.91035 5.71734 1.79289 5.96238 1.67188 6.21484C1.12016 6.21484 0.568438 6.21484 0 6.21484C0.402126 4.89628 0.939923 3.7129 1.56738 2.49231C1.87772 1.88383 2.18807 1.27535 2.50781 0.648438Z" fill="#9D9DA9"/>
</svg>
