<svg width="41" height="21" viewBox="0 0 41 21" fill="none" xmlns="http://www.w3.org/2000/svg">
<path d="M0.0520782 0.421875C10.9945 0.421875 21.9369 0.421875 33.2109 0.421875C36.7802 8.84846 36.7802 8.84846 38.174 12.4543C38.4278 13.1103 38.6838 13.7654 38.94 14.4205C39.104 14.8423 39.2678 15.2641 39.4315 15.686C39.5072 15.8796 39.5829 16.0732 39.6609 16.2726C40.1771 17.6136 40.1771 17.6136 40.1771 18.2344C38.1016 18.908 36.1584 18.7989 33.9946 18.7388C30.9514 18.68 28.1121 18.9002 25.1128 19.4868C17.0948 21.0243 17.0948 21.0243 14.1193 19.7695C13.3055 19.2142 12.7008 18.6815 12.0338 17.9561C11.8673 17.7821 11.7008 17.6082 11.5293 17.429C10.0494 15.8404 8.91795 14.1412 7.80192 12.2853C6.34565 9.90879 4.84668 7.57833 3.24977 5.2937C2.13359 3.69397 1.10386 2.07274 0.0520782 0.421875Z" fill="#FEFEFE"/>
</svg>
