<svg width="15" height="9" viewBox="0 0 15 9" fill="none" xmlns="http://www.w3.org/2000/svg">
<path d="M9.60156 1.07911C10.1876 1.04905 10.774 1.02746 11.3605 1.00953C11.8503 0.990155 11.8503 0.990155 12.3499 0.97039C13.224 1.07911 13.224 1.07911 13.741 1.48354C14.0599 2.19239 14.0599 2.19239 14.3385 4.69727C11.5799 4.83504 11.5799 4.83504 8.76563 4.97559C8.67367 5.8022 8.58172 6.62882 8.48698 7.48048C8.39503 7.66417 8.30308 7.84786 8.20834 8.03712C5.7256 8.03712 3.24287 8.03712 0.684898 8.03712C0.307501 7.2832 0.388136 6.64292 0.406252 5.81055C0.671673 5.80447 0.671673 5.80447 0.942455 5.79826C1.75075 5.77742 2.55875 5.75055 3.36686 5.72358C3.78442 5.71416 3.78442 5.71416 4.21042 5.70455C5.73324 5.64915 6.90425 5.56913 8.20834 4.69727C9.191 3.53006 9.48057 2.58979 9.60156 1.07911Z" fill="#54149C"/>
</svg>
