<svg width="38" height="3" viewBox="0 0 38 3" fill="none" xmlns="http://www.w3.org/2000/svg">
<path d="M2.81887 0.326066C3.1209 0.324879 3.42293 0.323692 3.73411 0.322469C4.06835 0.322595 4.40258 0.322721 4.74695 0.322851C5.27156 0.321449 5.27156 0.321449 5.80677 0.320018C6.76878 0.317552 7.73078 0.316907 8.6928 0.31673C9.49471 0.316466 10.2966 0.315443 11.0985 0.314455C12.9898 0.312186 14.8811 0.31151 16.7724 0.311707C18.7261 0.311874 20.6797 0.308937 22.6334 0.304542C24.3083 0.300908 25.9833 0.29941 27.6582 0.299588C28.6597 0.299659 29.6611 0.298857 30.6625 0.29592C31.7788 0.292736 32.895 0.293987 34.0113 0.295671C34.345 0.294107 34.6786 0.292543 35.0224 0.290932C35.3252 0.292099 35.6281 0.293267 35.94 0.294469C36.2042 0.294318 36.4684 0.294166 36.7406 0.29401C37.3698 0.363281 37.3698 0.363281 37.9271 0.919921C38.0142 1.61572 38.0142 1.61572 37.9271 2.31152C36.9996 2.92914 36.7165 2.93722 35.6366 2.9351C35.3353 2.93587 35.0341 2.93663 34.7237 2.93742C34.3932 2.93542 34.0627 2.93342 33.7222 2.93136C33.3742 2.93144 33.0262 2.93152 32.6676 2.9316C31.7131 2.93128 30.7587 2.92849 29.8043 2.9246C28.8069 2.92113 27.8095 2.9208 26.8121 2.92014C24.9232 2.91841 23.0345 2.91384 21.1456 2.90825C18.9953 2.90203 16.845 2.89897 14.6947 2.89618C10.2713 2.89036 5.84791 2.88056 1.42449 2.86816C0.856317 1.83099 0.856317 1.83099 0.954279 1.14606C1.33262 0.14977 1.81521 0.327838 2.81887 0.326066Z" fill="#FCFEFE"/>
</svg>
