<svg width="222" height="225" viewBox="0 0 222 225" fill="none" xmlns="http://www.w3.org/2000/svg">
<path d="M44.3058 0.0905051C44.6425 0.0890414 44.6425 0.0890414 44.9861 0.0875481C45.7447 0.0849411 46.5033 0.0863299 47.2619 0.0876783C47.8088 0.0866392 48.3556 0.0853588 48.9024 0.0838568C50.4101 0.0804387 51.9177 0.0805271 53.4254 0.0811818C55.0495 0.0812951 56.6735 0.0782265 58.2975 0.0755834C61.4812 0.0709524 64.6648 0.0694295 67.8484 0.0691194C70.4352 0.0688553 73.022 0.0677133 75.6088 0.0659462C76.3527 0.0654483 77.0967 0.0649513 77.8407 0.0644573C78.0257 0.0643343 78.2106 0.0642112 78.4012 0.0640844C83.6049 0.0606577 88.8087 0.0584622 94.0124 0.0587091C94.3069 0.0587221 94.3069 0.0587221 94.6072 0.0587354C95.6021 0.0587817 96.597 0.0588368 97.5919 0.0588939C97.7895 0.058905 97.9871 0.0589161 98.1907 0.0589275C98.5903 0.05895 98.9899 0.0589733 99.3895 0.0589973C105.608 0.0593385 111.826 0.0551593 118.044 0.0475458C125.026 0.0390002 132.008 0.0342049 138.99 0.0347226C142.689 0.034929 146.387 0.033365 150.086 0.0273871C153.234 0.0223308 156.383 0.0210982 159.531 0.0248875C161.139 0.0267111 162.746 0.026715 164.353 0.0219077C165.824 0.0175556 167.294 0.0182996 168.764 0.0231791C169.297 0.0240393 169.83 0.0230011 170.363 0.0199172C171.086 0.016013 171.808 0.0189126 172.53 0.0235666C172.739 0.0208011 172.948 0.0180356 173.163 0.0151863C174.518 0.033748 175.201 0.327188 176.164 1.27539C175.739 4.21206 175.215 7.12857 174.684 10.0477C174.406 11.5787 174.129 13.11 173.852 14.6413C173.793 14.9706 173.733 15.3 173.672 15.6393C173.198 18.2589 172.727 20.8792 172.259 23.4997C172.205 23.7974 172.205 23.7974 172.151 24.1011C172.007 24.9069 171.863 25.7128 171.719 26.5186C170.568 32.9514 169.413 39.3833 168.218 45.8081C167.814 47.9812 167.413 50.155 167.012 52.3287C166.164 56.9276 165.314 61.526 164.461 66.124C164.404 66.4333 164.346 66.7427 164.287 67.0614C163.999 68.6169 163.709 70.1723 163.418 71.7272C163.336 72.163 163.255 72.5988 163.174 73.0347C163.066 73.616 162.957 74.1971 162.847 74.778C162.788 75.0929 162.729 75.4077 162.668 75.7321C162.51 76.4219 162.51 76.4219 162.232 76.7002C161.608 76.7306 160.983 76.7411 160.358 76.7442C160.159 76.7456 159.961 76.747 159.757 76.7484C159.088 76.7527 158.419 76.755 157.749 76.7573C157.272 76.76 156.794 76.7628 156.316 76.7657C155.015 76.7732 153.714 76.7791 152.413 76.7846C151.055 76.7907 149.697 76.7983 148.339 76.8058C145.765 76.8197 143.191 76.8322 140.618 76.8442C137.688 76.8579 134.759 76.8732 131.83 76.8886C125.802 76.9203 119.775 76.9501 113.747 76.9785C113.888 77.2922 113.888 77.2922 114.032 77.6123C114.389 78.4063 114.744 79.2006 115.099 79.9952C115.326 80.5009 115.553 81.0062 115.78 81.5116C122.296 96.0988 122.296 96.0988 120.156 103.141C120.064 103.324 119.972 103.508 119.878 103.697C120.239 103.696 120.601 103.694 120.973 103.693C122.309 103.688 123.645 103.685 124.981 103.682C125.561 103.681 126.14 103.679 126.719 103.676C127.55 103.673 128.381 103.671 129.211 103.67C129.602 103.668 129.602 103.668 130.001 103.666C130.241 103.666 130.481 103.666 130.728 103.666C130.94 103.665 131.152 103.664 131.371 103.664C131.859 103.697 131.859 103.697 132.138 103.976C132.158 104.538 132.161 105.1 132.155 105.663C132.153 105.97 132.15 106.278 132.148 106.595C132.145 106.832 132.141 107.07 132.138 107.315C132.325 107.315 132.513 107.315 132.706 107.315C143.795 107.302 154.885 107.293 165.975 107.287C167.305 107.286 168.635 107.286 169.965 107.285C170.363 107.285 170.363 107.285 170.768 107.284C175.061 107.282 179.355 107.278 183.648 107.272C188.051 107.267 192.454 107.264 196.856 107.263C199.575 107.262 202.293 107.26 205.012 107.255C206.874 107.252 208.736 107.252 210.598 107.252C211.673 107.253 212.749 107.252 213.825 107.249C214.989 107.246 216.153 107.247 217.316 107.248C217.831 107.246 217.831 107.246 218.356 107.244C218.821 107.245 218.821 107.245 219.295 107.247C219.698 107.247 219.698 107.247 220.11 107.246C220.747 107.315 220.747 107.315 221.305 107.872C221.369 108.465 221.369 108.465 221.357 109.142C221.355 109.366 221.353 109.59 221.352 109.821C221.305 110.377 221.305 110.377 221.026 110.655C220.202 110.68 219.385 110.687 218.561 110.682C218.314 110.682 218.067 110.682 217.812 110.681C217.02 110.68 216.228 110.676 215.436 110.673C214.9 110.671 214.364 110.67 213.829 110.669C212.512 110.666 211.196 110.661 209.88 110.655C209.88 110.849 209.881 111.043 209.881 111.243C209.903 131.219 209.855 151.195 209.8 171.17C209.797 172.193 209.795 173.215 209.792 174.237C209.791 174.491 209.79 174.745 209.79 175.006C209.778 179.18 209.769 183.355 209.761 187.529C209.752 191.862 209.742 196.195 209.729 200.527C209.722 202.942 209.716 205.357 209.712 207.772C209.709 209.809 209.704 211.845 209.697 213.882C209.693 214.919 209.69 215.956 209.69 216.993C209.689 218.113 209.684 219.233 209.679 220.354C209.68 220.684 209.68 221.014 209.681 221.353C209.678 221.8 209.678 221.8 209.674 222.256C209.674 222.514 209.673 222.772 209.673 223.039C209.602 223.653 209.602 223.653 209.044 224.21C208.155 224.307 207.573 224.312 206.769 223.903C206.021 223.13 206.121 222.574 206.125 221.512C206.124 221.321 206.123 221.129 206.123 220.932C206.121 220.286 206.128 219.641 206.134 218.995C206.135 218.53 206.135 218.064 206.135 217.598C206.136 216.315 206.143 215.032 206.152 213.748C206.16 212.366 206.162 210.983 206.165 209.601C206.17 207.204 206.179 204.808 206.192 202.411C206.209 198.947 206.221 195.482 206.231 192.017C206.247 186.395 206.268 180.774 206.293 175.153C206.317 169.691 206.338 164.23 206.356 158.768C206.358 158.264 206.358 158.264 206.36 157.749C206.365 156.061 206.371 154.373 206.376 152.685C206.423 138.675 206.478 124.665 206.536 110.655C192.192 110.655 177.847 110.655 163.068 110.655C163.072 115.785 163.072 115.785 163.077 121.019C163.086 131.95 163.092 142.882 163.096 153.813C163.097 155.509 163.098 157.206 163.098 158.903C163.099 159.409 163.099 159.409 163.099 159.926C163.101 165.403 163.106 170.879 163.111 176.355C163.116 181.97 163.119 187.586 163.12 193.201C163.121 196.668 163.123 200.136 163.128 203.603C163.131 205.978 163.132 208.353 163.131 210.728C163.131 212.1 163.131 213.472 163.134 214.844C163.137 216.098 163.137 217.352 163.135 218.606C163.135 219.062 163.136 219.517 163.137 219.973C163.14 220.589 163.138 221.204 163.136 221.82C163.137 222.163 163.137 222.506 163.137 222.86C163.068 223.653 163.068 223.653 162.51 224.21C161.306 224.315 160.837 224.209 159.724 223.653C159.724 186.364 159.724 149.075 159.724 110.655C133.701 110.655 107.679 110.655 80.8672 110.655C84.9537 107.594 88.6118 106.565 93.6849 107.037C93.593 106.853 93.501 106.67 93.4063 106.48C93.3951 105.924 93.3942 105.367 93.4063 104.811C93.6717 104.804 93.6717 104.804 93.9425 104.798C94.7508 104.777 95.5588 104.751 96.3669 104.724C96.6452 104.717 96.9236 104.711 97.2104 104.705C98.7332 104.649 99.9043 104.569 101.208 103.697C102.191 102.53 102.481 101.59 102.602 100.079C103.188 100.049 103.774 100.027 104.361 100.01C104.687 99.9966 105.014 99.9837 105.35 99.9704C106.224 100.079 106.224 100.079 106.746 100.557C107.258 101.594 107.254 102.55 107.339 103.697C108.166 103.697 108.994 103.697 109.846 103.697C110.019 100.374 109.757 98.1403 107.582 95.5564C105.767 93.6497 103.691 92.2728 101.017 92.1644C98.6813 92.1644 96.531 92.7633 94.2915 93.3864C94.013 93.4628 93.7345 93.5392 93.4476 93.6179C93.0734 93.7251 93.0734 93.7251 92.6916 93.8344C91.5587 94.0376 91.5587 94.0376 90.8985 93.6777C90.5506 93.01 90.2874 92.397 90.0342 91.6936C89.9566 91.4895 89.8791 91.2853 89.7992 91.0749C89.5463 90.4074 89.2994 89.7378 89.0524 89.0681C88.7937 88.3811 88.5335 87.6948 88.273 87.0086C88.0987 86.5495 87.9249 86.0902 87.7515 85.6307C86.8925 83.3608 85.9596 81.1255 85.0038 78.8946C84.8452 78.522 84.8452 78.522 84.6833 78.1418C84.5914 77.9287 84.4995 77.7155 84.4048 77.4959C84.2109 76.9785 84.2109 76.9785 84.2109 76.4219C83.9544 76.425 83.9544 76.425 83.6926 76.4281C79.5298 76.4773 75.367 76.5141 71.204 76.5372C69.1908 76.5487 67.1777 76.5644 65.1646 76.5898C63.4098 76.612 61.6552 76.6264 59.9003 76.6314C58.9711 76.6343 58.0424 76.6423 57.1132 76.6573C56.0756 76.6734 55.0388 76.6757 54.0011 76.6746C53.6934 76.6827 53.3858 76.6907 53.0688 76.6989C52.7855 76.6958 52.5023 76.6928 52.2104 76.6896C51.8425 76.6927 51.8425 76.6927 51.4671 76.6958C50.7734 76.4219 50.7734 76.4219 49.3802 74.1953C85.9776 74.1035 122.575 74.0116 160.281 73.917C161.201 68.7736 162.12 63.6303 163.068 58.3311C163.597 55.4475 164.126 52.5642 164.662 49.6819C164.97 48.0196 165.274 46.3565 165.578 44.6934C166.807 37.9618 168.071 31.2375 169.36 24.5171C170.283 19.7034 171.201 14.8898 172.019 10.0572C172.346 8.14567 172.718 6.24964 173.121 4.35295C173.173 4.10962 173.224 3.86629 173.278 3.61559C173.404 3.02102 173.53 2.42652 173.656 1.83203C150.635 1.81622 127.613 1.80407 64.66 1.94495C63.3882 1.95241 62.1164 1.95941 60.8446 1.96628C58.2595 1.98026 55.6744 1.99588 53.0893 2.01374C52.2581 2.01947 51.427 2.02467 50.5958 2.02938C49.4916 2.03572 48.3874 2.04429 47.2832 2.05321C46.962 2.05481 46.6409 2.05641 46.3101 2.05806C45.8772 2.06215 45.8772 2.06215 45.4355 2.06632C45.1862 2.06811 44.9369 2.06991 44.6801 2.07176C44.0711 2.07276 44.0711 2.07276 43.5287 2.38867C43.3397 3.13034 43.1849 3.85606 43.0476 4.60762C43.005 4.82962 42.9625 5.05162 42.9187 5.28035C42.7831 5.99177 42.6508 6.70377 42.5186 7.41583C42.4274 7.89732 42.3359 8.37876 42.2443 8.86016C42.0193 10.0423 41.7988 11.2252 41.5781 12.4082C45.4402 12.546 45.4402 12.546 49.3802 12.6865C49.3802 16.737 49.0322 19.0725 46.5774 22.2038C45.2935 23.3959 44.0247 23.6481 42.3118 23.6834C42.1224 23.6884 41.933 23.6934 41.7379 23.6986C41.139 23.7135 40.5401 23.723 39.9411 23.7324C39.5325 23.7416 39.124 23.7512 38.7155 23.7612C37.7192 23.7847 36.723 23.8033 35.7266 23.8193C34.8843 26.8757 34.1442 29.947 33.4452 33.0387C33.3453 33.4772 33.2453 33.9157 33.1453 34.3542C33.0496 34.7746 32.954 35.1949 32.8585 35.6153C32.8147 35.8081 32.7708 36.0009 32.7257 36.1996C31.7883 40.1433 31.7883 40.1433 32.8868 43.9215C34.2187 45.9017 35.9182 47.3391 38.2344 48.0332C38.9773 48.1529 39.7141 48.2354 40.4635 48.3115C40.4865 48.0762 40.5095 47.8408 40.5332 47.5983C40.786 46.4409 41.2341 45.6965 41.8568 44.6934C42.1326 44.6934 42.4085 44.6934 42.6927 44.6934C42.5753 45.6553 42.4056 46.3808 41.983 47.2602C41.5053 48.3442 41.5254 49.3383 41.5955 50.5033C41.646 52.2463 41.5985 53.8566 40.4635 55.2695C39.2952 56.2134 38.1958 56.2069 36.7541 56.1567C36.5477 56.1529 36.3414 56.1491 36.1288 56.1453C35.6231 56.1355 35.1175 56.1205 34.612 56.1045C34.5983 56.2595 34.5847 56.4145 34.5706 56.5742C34.4265 58.0432 34.1649 59.4119 33.7761 60.8359C33.2243 60.6522 32.6726 60.4686 32.1042 60.2793C32.0374 58.7116 32.2755 57.3443 32.6615 55.8262C32.3993 55.8326 32.137 55.8391 31.8669 55.8457C31.5199 55.8508 31.1729 55.8558 30.8154 55.861C30.4728 55.8674 30.1301 55.8739 29.777 55.8805C28.7763 55.827 28.0174 55.6321 27.0885 55.2695C26.8911 54.2559 26.7018 53.2409 26.5138 52.2254C26.4583 51.9411 26.4029 51.6567 26.3457 51.3638C25.8912 48.871 26.1092 46.8901 26.6532 44.4324C28.0826 38.4977 28.0826 38.4977 27.2224 32.9061C27.0863 32.7547 26.9502 32.6033 26.8099 32.4473C25.5646 32.496 25.0096 32.5824 24.0931 33.4562C22.8893 34.9888 22.5608 36.4177 22.5997 38.3109C22.6505 41.0682 22.213 42.7936 20.3096 44.8129C20.0639 45.049 19.8182 45.2851 19.5651 45.5283C19.3826 45.707 19.2002 45.8857 19.0122 46.0697C16.2153 48.4455 12.1898 49.0024 8.69792 49.7031C8.5807 49.3758 8.5807 49.3758 8.46112 49.0419C7.59919 46.7121 6.55209 44.5666 5.37159 42.3798C1.96877 35.9614 -0.569742 28.9164 1.42157 21.6015C2.73946 18.0173 4.46869 15.558 7.86199 13.7998C8.09654 13.7194 8.33109 13.6391 8.57275 13.5563C9.43651 13.16 9.82703 12.6571 10.422 11.9211C12.4782 9.56478 15.0547 8.16666 18.1939 7.87551C19.1286 7.84309 20.0579 7.83924 20.9932 7.85071C21.4938 7.85494 21.4938 7.85494 22.0046 7.85927C24.5315 7.90332 26.8691 8.14149 29.3177 8.79004C29.6726 8.88186 29.6726 8.88186 30.0346 8.97554C31.8456 9.44748 33.6478 9.94815 35.4479 10.46C35.8673 10.5785 36.2868 10.697 36.7062 10.8155C37.5879 11.0654 38.4687 11.3182 39.349 11.5732C39.3964 11.2794 39.4438 10.9856 39.4926 10.6828C39.7165 9.30853 39.9499 7.93592 40.1849 6.56348C40.2296 6.29884 40.2743 6.0342 40.3204 5.76154C40.4571 4.96122 40.599 4.16197 40.7422 3.36279C40.8064 2.98141 40.8064 2.98141 40.872 2.59231C40.9154 2.35577 40.9587 2.11923 41.0034 1.87552C41.0404 1.66546 41.0774 1.4554 41.1155 1.23897C41.6135 -0.169207 43.0749 0.0838055 44.3058 0.0905051Z" fill="#2E1E67"/>
</svg>
