<svg width="25" height="80" viewBox="0 0 25 80" fill="none" xmlns="http://www.w3.org/2000/svg">
<path d="M3.15229 0.858837C3.41989 0.857761 3.68749 0.856684 3.96319 0.855576C4.24228 0.858805 4.52138 0.862033 4.80893 0.86536C5.08586 0.862131 5.3628 0.858902 5.64813 0.855576C8.35507 0.866434 8.35507 0.866434 9.30209 1.80469C9.80812 3.11438 9.99198 4.45235 10.1729 5.84034C10.2429 6.36127 10.2429 6.36127 10.3144 6.89273C10.4135 7.89563 10.4238 8.86911 10.4167 9.87598C11.65 9.73494 12.883 9.59155 14.1157 9.4462C14.5331 9.3973 14.9505 9.34899 15.368 9.30133C17.9309 9.00831 20.4441 8.63213 22.9666 8.08898C23.7917 7.92774 23.7917 7.92774 24.6276 7.92774C23.9102 10.4471 23.0549 12.9188 22.1895 15.3902C22.0731 15.7228 22.0731 15.7228 21.9543 16.0622C20.7164 19.5857 19.3855 23.065 17.9749 26.523C17.8896 26.7323 17.8043 26.9416 17.7165 27.1572C17.4678 27.7657 17.2176 28.3735 16.967 28.9811C16.8477 29.273 16.8477 29.273 16.726 29.5708C16.3203 30.5526 15.894 31.515 15.4222 32.4671C14.2345 34.8987 13.8379 36.6667 14.3177 39.3779C14.398 40.0614 14.4751 40.7453 14.5496 41.4295C14.6165 41.9827 14.6834 42.5359 14.7512 43.089C15.1942 46.7132 15.5969 50.3405 15.9722 53.9724C16.3824 57.9298 16.8205 61.8835 17.2783 65.8358C17.3074 66.0887 17.3365 66.3416 17.3664 66.6021C17.6616 69.1663 17.9679 71.723 18.3869 74.2706C18.808 77.0607 18.808 77.0607 17.9053 78.3602C17.1042 78.8994 17.1042 78.8994 16.2682 79.0734C15.1443 78.8395 14.7493 78.3946 14.0391 77.5078C13.459 76.3076 13.243 75.0456 13.0083 73.744C12.9649 73.5099 12.9216 73.2759 12.8769 73.0348C12.7346 72.2647 12.5944 71.4942 12.4543 70.7238C12.3548 70.1826 12.2552 69.6414 12.1556 69.1003C11.8522 67.4501 11.5519 65.7994 11.2526 64.1484C11.2083 63.9039 11.1639 63.6595 11.1182 63.4076C10.6255 60.6896 10.138 57.9707 9.65306 55.2513C9.39777 53.8221 9.13755 52.394 8.87433 50.9663C7.64548 44.2771 6.53352 37.5692 5.42008 30.8601C3.59103 19.7574 3.59103 19.7574 1.54749 8.69264C1.50904 8.49415 1.47058 8.29566 1.43097 8.09115C1.32427 7.5415 1.216 6.99216 1.10762 6.44284C0.861278 4.91913 0.705209 3.33738 0.942715 1.80469C1.59094 0.934164 2.0929 0.862933 3.15229 0.858837Z" fill="#4B2C7A"/>
</svg>
