<svg width="27" height="22" viewBox="0 0 27 22" fill="none" xmlns="http://www.w3.org/2000/svg">
<path d="M18.9036 9H16.2029C15.9641 9 15.7351 8.89464 15.5663 8.70711C15.3975 8.51957 15.3026 8.26522 15.3026 8C15.3026 7.73478 15.3975 7.48043 15.5663 7.29289C15.7351 7.10536 15.9641 7 16.2029 7H18.9036C19.1424 7 19.3714 7.10536 19.5402 7.29289C19.709 7.48043 19.8039 7.73478 19.8039 8C19.8039 8.26522 19.709 8.51957 19.5402 8.70711C19.3714 8.89464 19.1424 9 18.9036 9ZM10.8014 7H9.90118V6C9.90118 5.73478 9.80634 5.48043 9.63751 5.29289C9.46868 5.10536 9.2397 5 9.00094 5C8.76218 5 8.5332 5.10536 8.36437 5.29289C8.19554 5.48043 8.1007 5.73478 8.1007 6V7H7.20045C6.96169 7 6.73271 7.10536 6.56388 7.29289C6.39505 7.48043 6.30021 7.73478 6.30021 8C6.30021 8.26522 6.39505 8.51957 6.56388 8.70711C6.73271 8.89464 6.96169 9 7.20045 9H8.1007V10C8.1007 10.2652 8.19554 10.5196 8.36437 10.7071C8.5332 10.8946 8.76218 11 9.00094 11C9.2397 11 9.46868 10.8946 9.63751 10.7071C9.80634 10.5196 9.90118 10.2652 9.90118 10V9H10.8014C11.0402 9 11.2692 8.89464 11.438 8.70711C11.6068 8.51957 11.7017 8.26522 11.7017 8C11.7017 7.73478 11.6068 7.48043 11.438 7.29289C11.2692 7.10536 11.0402 7 10.8014 7ZM26.2721 20.0812C25.9328 20.6194 25.4916 21.0686 24.9793 21.3971C24.4671 21.7256 23.8963 21.9255 23.3071 21.9828C22.7179 22.0401 22.1245 21.9534 21.5686 21.7288C21.0128 21.5041 20.508 21.147 20.0897 20.6825C20.0762 20.6675 20.0627 20.6525 20.0503 20.6362L15.5817 15H11.4181L6.95401 20.6362L6.91462 20.6825C6.15415 21.5254 5.12391 21.9992 4.0496 22C3.45818 21.9998 2.87398 21.8557 2.33805 21.5779C1.80211 21.3001 1.32742 20.8953 0.947344 20.392C0.567264 19.8886 0.291004 19.299 0.13797 18.6644C-0.0150628 18.0298 -0.0411577 17.3657 0.061519 16.7188C0.0609769 16.7129 0.0609769 16.7071 0.061519 16.7013L1.90364 6.19C2.1778 4.45634 2.99323 2.88546 4.20664 1.75339C5.42006 0.621326 6.95382 0.000499307 8.53844 0H18.4535C20.0333 0.00279963 21.5624 0.620076 22.7752 1.74466C23.988 2.86924 24.808 4.4301 25.0928 6.15625C25.0928 6.16375 25.0928 6.17125 25.0928 6.17875L26.9349 16.7C26.9355 16.7058 26.9355 16.7117 26.9349 16.7175C27.0303 17.299 27.0208 17.8958 26.907 18.4732C26.7932 19.0506 26.5774 19.5971 26.2721 20.0812ZM18.4535 13C19.7667 13 21.0261 12.4205 21.9546 11.3891C22.8832 10.3576 23.4048 8.95869 23.4048 7.5C23.4048 6.04131 22.8832 4.64236 21.9546 3.61091C21.0261 2.57946 19.7667 2 18.4535 2H8.53844C7.37594 2.00116 6.25105 2.45767 5.36167 3.28922C4.47229 4.12076 3.8754 5.27408 3.676 6.54625V6.5625L1.83275 17.0738C1.75127 17.5949 1.82069 18.1313 2.031 18.6058C2.24132 19.0803 2.5817 19.4685 3.00319 19.7145C3.42469 19.9606 3.90557 20.0518 4.37669 19.9751C4.8478 19.8983 5.28487 19.6576 5.62502 19.2875L10.3423 13.3388C10.4268 13.2323 10.5307 13.1471 10.6471 13.0886C10.7635 13.0302 10.8897 13 11.0175 13H18.4535ZM25.1716 17.0738L24.1881 11.4487C23.5832 12.5337 22.739 13.4293 21.7355 14.0508C20.732 14.6722 19.6024 14.9989 18.4535 15H17.9809L21.3793 19.2887C21.6355 19.5656 21.9472 19.771 22.2887 19.8881C22.6303 20.0052 22.9919 20.0307 23.3441 19.9625C23.9307 19.8475 24.4523 19.4788 24.7947 18.9374C25.137 18.3959 25.2721 17.7257 25.1704 17.0738H25.1716Z" fill="#47DEA5"/>
</svg>
